<mxfile host="app.diagrams.net" modified="2024-04-06T06:28:11.076Z" agent="Mozilla/5.0 (Windows NT 10.0; Win64; x64) AppleWebKit/537.36 (KHTML, like Gecko) Chrome/123.0.0.0 Safari/537.36" etag="qjma9YGdk2M427thjXdh" version="24.2.2" type="github" pages="3">
  <diagram id="C5RBs43oDa-KdzZeNtuy" name="Page-1">
    <mxGraphModel dx="5685" dy="2500" grid="1" gridSize="10" guides="1" tooltips="1" connect="1" arrows="1" fold="1" page="1" pageScale="1" pageWidth="827" pageHeight="1169" math="0" shadow="0">
      <root>
        <mxCell id="WIyWlLk6GJQsqaUBKTNV-0" />
        <mxCell id="WIyWlLk6GJQsqaUBKTNV-1" parent="WIyWlLk6GJQsqaUBKTNV-0" />
        <mxCell id="zj5DgvlPIWevBJ5u35A--26" value="" style="edgeStyle=elbowEdgeStyle;rounded=0;orthogonalLoop=1;jettySize=auto;elbow=vertical;html=1;strokeColor=default;align=center;verticalAlign=middle;fontFamily=Helvetica;fontSize=12;fontColor=default;labelBackgroundColor=default;startSize=8;endArrow=classic;endSize=8;" parent="WIyWlLk6GJQsqaUBKTNV-1" source="I8lv-Wd_FrDT5OXwbhbp-2" target="I8lv-Wd_FrDT5OXwbhbp-6" edge="1">
          <mxGeometry relative="1" as="geometry" />
        </mxCell>
        <mxCell id="zj5DgvlPIWevBJ5u35A--29" value="" style="edgeStyle=elbowEdgeStyle;rounded=0;orthogonalLoop=1;jettySize=auto;elbow=vertical;html=1;strokeColor=default;align=center;verticalAlign=middle;fontFamily=Helvetica;fontSize=12;fontColor=default;labelBackgroundColor=default;startSize=8;endArrow=classic;endSize=8;" parent="WIyWlLk6GJQsqaUBKTNV-1" source="I8lv-Wd_FrDT5OXwbhbp-2" target="I8lv-Wd_FrDT5OXwbhbp-7" edge="1">
          <mxGeometry relative="1" as="geometry" />
        </mxCell>
        <mxCell id="I8lv-Wd_FrDT5OXwbhbp-2" value="&lt;p style=&quot;margin:0px;margin-top:4px;text-align:center;&quot;&gt;&lt;b&gt;FishermanShipScript :&amp;nbsp;&lt;br&gt;&lt;/b&gt;&lt;b style=&quot;background-color: initial;&quot;&gt;MonoBehavior&lt;/b&gt;&lt;/p&gt;&lt;hr size=&quot;1&quot; style=&quot;border-style:solid;&quot;&gt;&lt;p style=&quot;margin:0px;margin-left:4px;&quot;&gt;&lt;span style=&quot;background-color: initial;&quot;&gt;+ FishPrefab : GameObject&lt;/span&gt;&lt;/p&gt;&lt;p style=&quot;margin:0px;margin-left:4px;&quot;&gt;&lt;span style=&quot;background-color: initial;&quot;&gt;+ ShipPrefab : GameObject&lt;/span&gt;&lt;/p&gt;&lt;p style=&quot;margin:0px;margin-left:4px;&quot;&gt;+ NetOfFish[] : List&lt;/p&gt;&lt;p style=&quot;margin:0px;margin-left:4px;&quot;&gt;+ ImpulseForce : const float&lt;/p&gt;&lt;hr size=&quot;1&quot; style=&quot;border-style:solid;&quot;&gt;&lt;p style=&quot;margin:0px;margin-left:4px;&quot;&gt;&lt;span style=&quot;background-color: initial;&quot;&gt;- OnMouseDown()&lt;/span&gt;&lt;/p&gt;&lt;p style=&quot;margin:0px;margin-left:4px;&quot;&gt;- MoveToFish()&lt;/p&gt;&lt;p style=&quot;margin:0px;margin-left:4px;&quot;&gt;- OnCollisionEnter2D()&amp;nbsp;&lt;/p&gt;&lt;p style=&quot;margin:0px;margin-left:4px;&quot;&gt;- RemoveFishFromSea()&lt;/p&gt;&lt;p style=&quot;margin:0px;margin-left:4px;&quot;&gt;- AddFishToNet()&lt;/p&gt;" style="verticalAlign=top;align=left;overflow=fill;html=1;whiteSpace=wrap;strokeColor=default;collapsible=0;enumerate=0;enumerateValue=2;" parent="WIyWlLk6GJQsqaUBKTNV-1" vertex="1">
          <mxGeometry x="310" y="440" width="180" height="200" as="geometry">
            <mxRectangle x="320" y="560" width="190" height="200" as="alternateBounds" />
          </mxGeometry>
        </mxCell>
        <mxCell id="I8lv-Wd_FrDT5OXwbhbp-6" value="&lt;p style=&quot;margin:0px;margin-top:4px;text-align:center;&quot;&gt;&lt;b&gt;FishSpawnScript :&lt;br&gt;MonoBehavior&lt;/b&gt;&lt;/p&gt;&lt;hr size=&quot;1&quot; style=&quot;border-style:solid;&quot;&gt;&lt;p style=&quot;margin:0px;margin-left:4px;&quot;&gt;&lt;span style=&quot;background-color: initial;&quot;&gt;+ FishPrefab : GameObject&lt;/span&gt;&lt;/p&gt;&lt;p style=&quot;margin:0px;margin-left:4px;&quot;&gt;+ SeaOfFish[] : List&lt;/p&gt;&lt;hr size=&quot;1&quot; style=&quot;border-style:solid;&quot;&gt;&lt;p style=&quot;margin:0px;margin-left:4px;&quot;&gt;&lt;span style=&quot;background-color: initial;&quot;&gt;- &lt;strike&gt;OnMouseDown()&lt;/strike&gt;&lt;/span&gt;&lt;/p&gt;&lt;p style=&quot;margin:0px;margin-left:4px;&quot;&gt;- &lt;strike&gt;CreateFishAtLocation()&lt;/strike&gt;&lt;/p&gt;&lt;p style=&quot;margin:0px;margin-left:4px;&quot;&gt;- AddFishToSea()&lt;/p&gt;" style="verticalAlign=top;align=left;overflow=fill;html=1;whiteSpace=wrap;imageAspect=1;allowArrows=1;collapsible=0;enumerate=1;enumerateValue=2;" parent="WIyWlLk6GJQsqaUBKTNV-1" vertex="1">
          <mxGeometry x="570" y="440" width="180" height="160" as="geometry">
            <mxRectangle x="580" y="560" width="190" height="140" as="alternateBounds" />
          </mxGeometry>
        </mxCell>
        <mxCell id="zj5DgvlPIWevBJ5u35A--30" value="" style="edgeStyle=elbowEdgeStyle;rounded=0;orthogonalLoop=1;jettySize=auto;elbow=vertical;html=1;strokeColor=default;align=center;verticalAlign=middle;fontFamily=Helvetica;fontSize=12;fontColor=default;labelBackgroundColor=default;startSize=8;endArrow=classic;endSize=8;" parent="WIyWlLk6GJQsqaUBKTNV-1" source="I8lv-Wd_FrDT5OXwbhbp-7" target="I8lv-Wd_FrDT5OXwbhbp-13" edge="1">
          <mxGeometry relative="1" as="geometry" />
        </mxCell>
        <mxCell id="zj5DgvlPIWevBJ5u35A--34" value="" style="edgeStyle=elbowEdgeStyle;rounded=0;orthogonalLoop=1;jettySize=auto;elbow=vertical;html=1;strokeColor=default;align=center;verticalAlign=middle;fontFamily=Helvetica;fontSize=12;fontColor=default;labelBackgroundColor=default;startSize=8;endArrow=classic;endSize=8;" parent="WIyWlLk6GJQsqaUBKTNV-1" source="I8lv-Wd_FrDT5OXwbhbp-7" target="I8lv-Wd_FrDT5OXwbhbp-21" edge="1">
          <mxGeometry relative="1" as="geometry" />
        </mxCell>
        <mxCell id="zj5DgvlPIWevBJ5u35A--35" style="edgeStyle=elbowEdgeStyle;rounded=0;orthogonalLoop=1;jettySize=auto;elbow=vertical;html=1;strokeColor=default;align=center;verticalAlign=middle;fontFamily=Helvetica;fontSize=12;fontColor=default;labelBackgroundColor=default;startSize=8;endArrow=classic;endSize=8;" parent="WIyWlLk6GJQsqaUBKTNV-1" source="I8lv-Wd_FrDT5OXwbhbp-7" target="I8lv-Wd_FrDT5OXwbhbp-17" edge="1">
          <mxGeometry relative="1" as="geometry" />
        </mxCell>
        <mxCell id="I8lv-Wd_FrDT5OXwbhbp-7" value="&lt;p style=&quot;margin:0px;margin-top:4px;text-align:center;&quot;&gt;&lt;b&gt;FishDestroyerScript : &lt;br&gt;MonoBehavior&lt;/b&gt;&lt;/p&gt;&lt;hr size=&quot;1&quot; style=&quot;border-style:solid;&quot;&gt;&lt;p style=&quot;margin:0px;margin-left:4px;&quot;&gt;&lt;span style=&quot;background-color: initial;&quot;&gt;+ scoreboard : ScoreBoardScript&lt;/span&gt;&lt;br&gt;&lt;/p&gt;&lt;p style=&quot;margin:0px;margin-left:4px;&quot;&gt;+ ReceivedFishDestruction : GameObject&lt;/p&gt;&lt;hr size=&quot;1&quot; style=&quot;border-style:solid;&quot;&gt;&lt;p style=&quot;margin:0px;margin-left:4px;&quot;&gt;&lt;span style=&quot;background-color: initial;&quot;&gt;- DestroyFishFromSea() : virtual void&lt;/span&gt;&lt;br&gt;&lt;/p&gt;" style="verticalAlign=top;align=left;overflow=fill;html=1;whiteSpace=wrap;" parent="WIyWlLk6GJQsqaUBKTNV-1" vertex="1">
          <mxGeometry x="410" y="680" width="230" height="140" as="geometry" />
        </mxCell>
        <mxCell id="I8lv-Wd_FrDT5OXwbhbp-8" style="edgeStyle=none;curved=1;rounded=0;orthogonalLoop=1;jettySize=auto;html=1;exitX=0.25;exitY=0;exitDx=0;exitDy=0;fontSize=12;startSize=8;endSize=8;" parent="WIyWlLk6GJQsqaUBKTNV-1" source="I8lv-Wd_FrDT5OXwbhbp-6" target="I8lv-Wd_FrDT5OXwbhbp-6" edge="1">
          <mxGeometry relative="1" as="geometry" />
        </mxCell>
        <mxCell id="I8lv-Wd_FrDT5OXwbhbp-12" value="&lt;p style=&quot;margin:0px;margin-top:4px;text-align:center;&quot;&gt;&lt;b&gt;Class&lt;/b&gt;&lt;/p&gt;&lt;hr size=&quot;1&quot; style=&quot;border-style:solid;&quot;/&gt;&lt;p style=&quot;margin:0px;margin-left:4px;&quot;&gt;+ field: Type&lt;/p&gt;&lt;hr size=&quot;1&quot; style=&quot;border-style:solid;&quot;/&gt;&lt;p style=&quot;margin:0px;margin-left:4px;&quot;&gt;+ method(): Type&lt;/p&gt;" style="verticalAlign=top;align=left;overflow=fill;html=1;whiteSpace=wrap;" parent="WIyWlLk6GJQsqaUBKTNV-1" vertex="1">
          <mxGeometry x="40" y="200" width="180" height="180" as="geometry" />
        </mxCell>
        <mxCell id="I8lv-Wd_FrDT5OXwbhbp-13" value="&lt;p style=&quot;margin:0px;margin-top:4px;text-align:center;&quot;&gt;&lt;b&gt;ScoreBoardScript : &lt;br&gt;MonoBehavior&lt;/b&gt;&lt;/p&gt;&lt;hr size=&quot;1&quot; style=&quot;border-style:solid;&quot;&gt;&lt;p style=&quot;margin:0px;margin-left:4px;&quot;&gt;&lt;span style=&quot;background-color: initial;&quot;&gt;+ totalPoints : static int&lt;/span&gt;&lt;br&gt;&lt;/p&gt;&lt;p style=&quot;margin:0px;margin-left:4px;&quot;&gt;+ setScoreValue : static int&lt;/p&gt;&lt;hr size=&quot;1&quot; style=&quot;border-style:solid;&quot;&gt;&lt;p style=&quot;margin:0px;margin-left:4px;&quot;&gt;&lt;span style=&quot;background-color: initial;&quot;&gt;- TotalPoints&lt;/span&gt;&lt;br&gt;&lt;/p&gt;&lt;p style=&quot;margin:0px;margin-left:4px;&quot;&gt;- SetScoreValue&lt;/p&gt;&lt;p style=&quot;margin:0px;margin-left:4px;&quot;&gt;- AddPoints()&amp;nbsp;&lt;/p&gt;" style="verticalAlign=top;align=left;overflow=fill;html=1;whiteSpace=wrap;" parent="WIyWlLk6GJQsqaUBKTNV-1" vertex="1">
          <mxGeometry x="850" y="660" width="180" height="180" as="geometry" />
        </mxCell>
        <mxCell id="zj5DgvlPIWevBJ5u35A--36" value="" style="edgeStyle=elbowEdgeStyle;rounded=0;orthogonalLoop=1;jettySize=auto;elbow=vertical;html=1;strokeColor=default;align=center;verticalAlign=middle;fontFamily=Helvetica;fontSize=12;fontColor=default;labelBackgroundColor=default;startSize=8;endArrow=classic;endSize=8;" parent="WIyWlLk6GJQsqaUBKTNV-1" source="I8lv-Wd_FrDT5OXwbhbp-17" target="I8lv-Wd_FrDT5OXwbhbp-23" edge="1">
          <mxGeometry relative="1" as="geometry" />
        </mxCell>
        <mxCell id="zj5DgvlPIWevBJ5u35A--37" style="edgeStyle=elbowEdgeStyle;rounded=0;orthogonalLoop=1;jettySize=auto;elbow=vertical;html=1;strokeColor=default;align=center;verticalAlign=middle;fontFamily=Helvetica;fontSize=12;fontColor=default;labelBackgroundColor=default;startSize=8;endArrow=classic;endSize=8;" parent="WIyWlLk6GJQsqaUBKTNV-1" source="I8lv-Wd_FrDT5OXwbhbp-17" target="I8lv-Wd_FrDT5OXwbhbp-22" edge="1">
          <mxGeometry relative="1" as="geometry" />
        </mxCell>
        <mxCell id="I8lv-Wd_FrDT5OXwbhbp-17" value="&lt;p style=&quot;margin:0px;margin-top:4px;text-align:center;&quot;&gt;&lt;b&gt;AnimatedFishScript : &lt;br&gt;FishDestroyerScript&lt;/b&gt;&lt;/p&gt;&lt;hr size=&quot;1&quot; style=&quot;border-style:solid;&quot;&gt;&lt;p style=&quot;margin:0px;margin-left:4px;&quot;&gt;&lt;span style=&quot;background-color: initial;&quot;&gt;+ ReceivedFishAnimation : GameObject&lt;/span&gt;&lt;br&gt;&lt;/p&gt;&lt;hr size=&quot;1&quot; style=&quot;border-style:solid;&quot;&gt;&lt;p style=&quot;margin:0px;margin-left:4px;&quot;&gt;&lt;br&gt;&lt;/p&gt;" style="verticalAlign=top;align=left;overflow=fill;html=1;whiteSpace=wrap;" parent="WIyWlLk6GJQsqaUBKTNV-1" vertex="1">
          <mxGeometry x="280" y="869" width="230" height="120" as="geometry" />
        </mxCell>
        <mxCell id="I8lv-Wd_FrDT5OXwbhbp-21" value="&lt;p style=&quot;margin:0px;margin-top:4px;text-align:center;&quot;&gt;&lt;b&gt;RegularFishScript : &lt;br&gt;FishDestroyerScript&lt;/b&gt;&lt;/p&gt;&lt;hr size=&quot;1&quot; style=&quot;border-style:solid;&quot;&gt;&lt;p style=&quot;margin:0px;margin-left:4px;&quot;&gt;+&amp;nbsp;&lt;/p&gt;&lt;hr size=&quot;1&quot; style=&quot;border-style:solid;&quot;&gt;&lt;p style=&quot;margin:0px;margin-left:4px;&quot;&gt;- DestroyFishFromSea() : override void&lt;/p&gt;" style="verticalAlign=top;align=left;overflow=fill;html=1;whiteSpace=wrap;" parent="WIyWlLk6GJQsqaUBKTNV-1" vertex="1">
          <mxGeometry x="539" y="869" width="230" height="121" as="geometry" />
        </mxCell>
        <mxCell id="I8lv-Wd_FrDT5OXwbhbp-22" value="&lt;p style=&quot;margin:0px;margin-top:4px;text-align:center;&quot;&gt;&lt;b&gt;ExplodingFishScript : &lt;br&gt;AnimatedFishScript&lt;/b&gt;&lt;/p&gt;&lt;hr size=&quot;1&quot; style=&quot;border-style:solid;&quot;&gt;&lt;p style=&quot;margin:0px;margin-left:4px;&quot;&gt;+ ExplosionPrefab : GameObject&lt;/p&gt;&lt;hr size=&quot;1&quot; style=&quot;border-style:solid;&quot;&gt;&lt;p style=&quot;margin:0px;margin-left:4px;&quot;&gt;- DestroyFishFromSea() : override void&lt;/p&gt;" style="verticalAlign=top;align=left;overflow=fill;html=1;whiteSpace=wrap;" parent="WIyWlLk6GJQsqaUBKTNV-1" vertex="1">
          <mxGeometry x="160" y="1020" width="220" height="180" as="geometry" />
        </mxCell>
        <mxCell id="zj5DgvlPIWevBJ5u35A--32" value="" style="edgeStyle=elbowEdgeStyle;rounded=0;orthogonalLoop=1;jettySize=auto;elbow=vertical;html=1;strokeColor=default;align=center;verticalAlign=middle;fontFamily=Helvetica;fontSize=12;fontColor=default;labelBackgroundColor=default;startSize=8;endArrow=classic;endSize=8;" parent="WIyWlLk6GJQsqaUBKTNV-1" source="I8lv-Wd_FrDT5OXwbhbp-23" target="I8lv-Wd_FrDT5OXwbhbp-24" edge="1">
          <mxGeometry relative="1" as="geometry" />
        </mxCell>
        <mxCell id="I8lv-Wd_FrDT5OXwbhbp-23" value="&lt;p style=&quot;margin:0px;margin-top:4px;text-align:center;&quot;&gt;&lt;b&gt;BurningFishScript : &lt;br&gt;AnimatedFishScript&lt;/b&gt;&lt;/p&gt;&lt;hr size=&quot;1&quot; style=&quot;border-style:solid;&quot;&gt;&lt;p style=&quot;margin:0px;margin-left:4px;&quot;&gt;+ BurningPrefab : GameObject&lt;/p&gt;&lt;p style=&quot;margin:0px;margin-left:4px;&quot;&gt;+ burnTimer : TimerScript&lt;/p&gt;&lt;p style=&quot;margin:0px;margin-left:4px;&quot;&gt;+ burningLifetime : float&lt;/p&gt;&lt;hr size=&quot;1&quot; style=&quot;border-style:solid;&quot;&gt;&lt;p style=&quot;margin:0px;margin-left:4px;&quot;&gt;- DestroyFishFromSea() : override void&lt;/p&gt;" style="verticalAlign=top;align=left;overflow=fill;html=1;whiteSpace=wrap;" parent="WIyWlLk6GJQsqaUBKTNV-1" vertex="1">
          <mxGeometry x="400" y="1020" width="216" height="180" as="geometry" />
        </mxCell>
        <mxCell id="I8lv-Wd_FrDT5OXwbhbp-24" value="&lt;p style=&quot;margin:0px;margin-top:4px;text-align:center;&quot;&gt;&lt;b&gt;TimerScript : &lt;br&gt;MonoBehavior&lt;/b&gt;&lt;/p&gt;&lt;hr size=&quot;1&quot; style=&quot;border-style:solid;&quot;&gt;&lt;p style=&quot;margin:0px;margin-left:4px;&quot;&gt;+ startPoint : float&lt;/p&gt;&lt;p style=&quot;margin:0px;margin-left:4px;&quot;&gt;+ endPoint : float&lt;/p&gt;&lt;p style=&quot;margin:0px;margin-left:4px;&quot;&gt;+ elapsed : float&lt;/p&gt;&lt;p style=&quot;margin:0px;margin-left:4px;&quot;&gt;+ running : bool&lt;/p&gt;&lt;hr size=&quot;1&quot; style=&quot;border-style:solid;&quot;&gt;&lt;p style=&quot;margin:0px;margin-left:4px;&quot;&gt;- StartPoint&lt;/p&gt;&lt;p style=&quot;margin:0px;margin-left:4px;&quot;&gt;- EndPoint&lt;/p&gt;&lt;p style=&quot;margin:0px;margin-left:4px;&quot;&gt;- Elapsed&lt;/p&gt;&lt;p style=&quot;margin:0px;margin-left:4px;&quot;&gt;- Running&lt;/p&gt;&lt;p style=&quot;margin:0px;margin-left:4px;&quot;&gt;- DeactivateTimer()&lt;/p&gt;&lt;p style=&quot;margin:0px;margin-left:4px;&quot;&gt;- ActivateTimer()&lt;/p&gt;&lt;p style=&quot;margin:0px;margin-left:4px;&quot;&gt;- KillTimer() // unusable&lt;/p&gt;&lt;p style=&quot;margin:0px;margin-left:4px;&quot;&gt;- CountUp()&lt;/p&gt;&lt;p style=&quot;margin:0px;margin-left:4px;&quot;&gt;- RestartTimer()&lt;/p&gt;&lt;p style=&quot;margin:0px;margin-left:4px;&quot;&gt;- UnderTime()&lt;/p&gt;&lt;p style=&quot;margin:0px;margin-left:4px;&quot;&gt;- OverTime()&lt;/p&gt;" style="verticalAlign=top;align=left;overflow=fill;html=1;whiteSpace=wrap;" parent="WIyWlLk6GJQsqaUBKTNV-1" vertex="1">
          <mxGeometry x="850" y="1000" width="180" height="280" as="geometry" />
        </mxCell>
        <mxCell id="udu61_19KQdqJCqH36GK-27" value="" style="rounded=0;orthogonalLoop=1;jettySize=auto;html=1;fontFamily=Helvetica;fontSize=12;fontColor=default;labelBorderColor=none;labelBackgroundColor=none;startSize=8;endSize=8;orthogonal=0;edgeStyle=elbowEdgeStyle;elbow=vertical;" parent="WIyWlLk6GJQsqaUBKTNV-1" source="1zb-dOCVbGjteGw6By8I-0" target="udu61_19KQdqJCqH36GK-26" edge="1">
          <mxGeometry relative="1" as="geometry" />
        </mxCell>
        <mxCell id="1zb-dOCVbGjteGw6By8I-0" value="&lt;p style=&quot;margin:0px;margin-top:4px;text-align:center;&quot;&gt;&lt;b&gt;GameInitializer :&amp;nbsp;&lt;br&gt;MonoBehavior&lt;/b&gt;&lt;/p&gt;&lt;hr size=&quot;1&quot; style=&quot;border-style:solid;&quot;&gt;&lt;p style=&quot;margin:0px;margin-left:4px;&quot;&gt;+&amp;nbsp;&lt;/p&gt;&lt;hr size=&quot;1&quot; style=&quot;border-style:solid;&quot;&gt;&lt;p style=&quot;margin:0px;margin-left:4px;&quot;&gt;- Start() {ScreenUtils.Initialize()}&lt;/p&gt;" style="verticalAlign=top;align=left;overflow=fill;html=1;whiteSpace=wrap;collapsible=0;enumerate=1;enumerateValue=1;" parent="WIyWlLk6GJQsqaUBKTNV-1" vertex="1">
          <mxGeometry x="1190" y="440" width="190" height="90" as="geometry">
            <mxRectangle x="1200" y="560" width="210" height="100" as="alternateBounds" />
          </mxGeometry>
        </mxCell>
        <mxCell id="1zb-dOCVbGjteGw6By8I-1" value="&lt;p style=&quot;margin:0px;margin-top:4px;text-align:center;&quot;&gt;&lt;b&gt;ScreenUtils : &lt;br&gt;MonoBehavior&lt;/b&gt;&lt;/p&gt;&lt;hr size=&quot;1&quot; style=&quot;border-style:solid;&quot;&gt;&lt;p style=&quot;margin:0px;margin-left:4px;&quot;&gt;+ screenWidth : static int&lt;/p&gt;&lt;p style=&quot;margin:0px;margin-left:4px;&quot;&gt;+ screenHeight : static int&lt;/p&gt;&lt;p style=&quot;margin:0px;margin-left:4px;&quot;&gt;+ screenLeft : static float&lt;/p&gt;&lt;p style=&quot;margin:0px;margin-left:4px;&quot;&gt;+ screenRight : static float&lt;/p&gt;&lt;p style=&quot;margin:0px;margin-left:4px;&quot;&gt;+ screenTop : static float&lt;/p&gt;&lt;p style=&quot;margin:0px;margin-left:4px;&quot;&gt;+ screenBot : static float&lt;/p&gt;&lt;hr size=&quot;1&quot; style=&quot;border-style:solid;&quot;&gt;&lt;p style=&quot;margin:0px;margin-left:4px;&quot;&gt;- ScreenLeft : static float&lt;/p&gt;&lt;p style=&quot;margin:0px;margin-left:4px;&quot;&gt;- ScreenRight : static float&lt;/p&gt;&lt;p style=&quot;margin:0px;margin-left:4px;&quot;&gt;- ScreenTop : static float&lt;/p&gt;&lt;p style=&quot;margin:0px;margin-left:4px;&quot;&gt;- ScreenBot : static float&lt;/p&gt;&lt;p style=&quot;margin:0px;margin-left:4px;&quot;&gt;- Initialize()&lt;/p&gt;&lt;p style=&quot;margin:0px;margin-left:4px;&quot;&gt;- CursorLocation() : static Vector3&lt;/p&gt;&lt;p style=&quot;margin:0px;margin-left:4px;&quot;&gt;- WithinBoundary() : static bool&lt;/p&gt;" style="verticalAlign=top;align=left;overflow=fill;html=1;whiteSpace=wrap;" parent="WIyWlLk6GJQsqaUBKTNV-1" vertex="1">
          <mxGeometry x="1190" y="540" width="190" height="260" as="geometry" />
        </mxCell>
        <mxCell id="1zb-dOCVbGjteGw6By8I-6" value="" style="ellipse;whiteSpace=wrap;html=1;align=center;aspect=fixed;fillColor=none;strokeColor=none;resizable=0;perimeter=centerPerimeter;rotatable=0;allowArrows=0;points=[];outlineConnect=1;" parent="WIyWlLk6GJQsqaUBKTNV-1" vertex="1">
          <mxGeometry x="700" y="540" width="10" height="10" as="geometry" />
        </mxCell>
        <mxCell id="1zb-dOCVbGjteGw6By8I-18" value="" style="shape=providedRequiredInterface;html=1;verticalLabelPosition=bottom;sketch=0;" parent="WIyWlLk6GJQsqaUBKTNV-1" vertex="1">
          <mxGeometry x="40" y="120" width="40" height="40" as="geometry" />
        </mxCell>
        <mxCell id="1zb-dOCVbGjteGw6By8I-19" value="Main Camera" style="shape=providedRequiredInterface;html=1;verticalLabelPosition=bottom;sketch=0;verticalAlign=top;" parent="WIyWlLk6GJQsqaUBKTNV-1" vertex="1">
          <mxGeometry x="40" y="40" width="40" height="40" as="geometry" />
        </mxCell>
        <mxCell id="udu61_19KQdqJCqH36GK-5" value="&lt;p style=&quot;margin:0px;margin-top:4px;text-align:center;&quot;&gt;&lt;b&gt;Class&lt;/b&gt;&lt;/p&gt;&lt;hr size=&quot;1&quot; style=&quot;border-style:solid;&quot;&gt;&lt;p style=&quot;margin:0px;margin-left:4px;&quot;&gt;+&amp;nbsp;&lt;/p&gt;&lt;hr size=&quot;1&quot; style=&quot;border-style:solid;&quot;&gt;&lt;p style=&quot;margin:0px;margin-left:4px;&quot;&gt;-&amp;nbsp;&lt;/p&gt;" style="verticalAlign=top;align=left;overflow=fill;html=1;whiteSpace=wrap;" parent="WIyWlLk6GJQsqaUBKTNV-1" vertex="1">
          <mxGeometry x="140" y="200" width="180" height="180" as="geometry" />
        </mxCell>
        <mxCell id="udu61_19KQdqJCqH36GK-6" value="&lt;p style=&quot;margin:0px;margin-top:4px;text-align:center;&quot;&gt;&lt;b&gt;Class&lt;/b&gt;&lt;/p&gt;&lt;hr size=&quot;1&quot; style=&quot;border-style:solid;&quot;&gt;&lt;p style=&quot;margin:0px;margin-left:4px;&quot;&gt;+&amp;nbsp;&lt;/p&gt;&lt;hr size=&quot;1&quot; style=&quot;border-style:solid;&quot;&gt;&lt;p style=&quot;margin:0px;margin-left:4px;&quot;&gt;-&amp;nbsp;&lt;/p&gt;" style="verticalAlign=top;align=left;overflow=fill;html=1;whiteSpace=wrap;collapsible=1;" parent="WIyWlLk6GJQsqaUBKTNV-1" vertex="1">
          <mxGeometry x="240" y="200" width="180" height="180" as="geometry">
            <mxRectangle x="720" y="360" width="70" height="90" as="alternateBounds" />
          </mxGeometry>
        </mxCell>
        <mxCell id="udu61_19KQdqJCqH36GK-7" value="" style="ellipse;html=1;shape=endState;align=left;verticalAlign=top;fontFamily=Helvetica;fontSize=12;strokeColor=default;fillColor=none;" parent="WIyWlLk6GJQsqaUBKTNV-1" vertex="1">
          <mxGeometry x="115" y="40" width="45" height="45" as="geometry" />
        </mxCell>
        <mxCell id="udu61_19KQdqJCqH36GK-12" value="" style="ellipse;whiteSpace=wrap;html=1;aspect=fixed;strokeColor=default;align=left;verticalAlign=top;fontFamily=Helvetica;fontSize=12;fontColor=default;fillColor=default;" parent="WIyWlLk6GJQsqaUBKTNV-1" vertex="1">
          <mxGeometry x="200" y="40" width="40" height="40" as="geometry" />
        </mxCell>
        <mxCell id="udu61_19KQdqJCqH36GK-19" value="Main Camera" style="ellipse;strokeColor=default;align=center;verticalAlign=bottom;fontFamily=Helvetica;fontSize=12;fontColor=default;fillColor=none;html=1;labelBorderColor=none;labelBackgroundColor=none;noLabel=0;collapsible=0;backgroundOutline=0;movableLabel=1;aspect=fixed;enumerate=0;" parent="WIyWlLk6GJQsqaUBKTNV-1" vertex="1">
          <mxGeometry x="280" y="40" width="40" height="40" as="geometry">
            <mxPoint y="20" as="offset" />
          </mxGeometry>
        </mxCell>
        <mxCell id="udu61_19KQdqJCqH36GK-24" value="Main Camera" style="ellipse;strokeColor=default;align=center;verticalAlign=bottom;fontFamily=Helvetica;fontSize=12;fontColor=default;fillColor=none;html=1;labelBorderColor=none;labelBackgroundColor=none;noLabel=0;collapsible=0;backgroundOutline=0;movableLabel=1;aspect=fixed;enumerate=0;" parent="WIyWlLk6GJQsqaUBKTNV-1" vertex="1">
          <mxGeometry x="360" y="40" width="28" height="28" as="geometry">
            <mxPoint y="20" as="offset" />
          </mxGeometry>
        </mxCell>
        <mxCell id="udu61_19KQdqJCqH36GK-26" value="Main Camera" style="ellipse;strokeColor=default;align=center;verticalAlign=bottom;fontFamily=Helvetica;fontSize=12;fontColor=default;fillColor=none;html=1;labelBorderColor=none;labelBackgroundColor=none;noLabel=0;collapsible=0;backgroundOutline=0;movableLabel=1;aspect=fixed;enumerate=0;" parent="WIyWlLk6GJQsqaUBKTNV-1" vertex="1">
          <mxGeometry x="1470" y="471" width="28" height="28" as="geometry">
            <mxPoint y="20" as="offset" />
          </mxGeometry>
        </mxCell>
        <mxCell id="_8CsA0RZOHr8ytunJFRW-28" value="Classname" style="swimlane;fontStyle=1;align=center;verticalAlign=top;childLayout=stackLayout;horizontal=1;startSize=26;horizontalStack=0;resizeParent=1;resizeParentMax=0;resizeLast=0;collapsible=1;marginBottom=0;whiteSpace=wrap;html=1;autosize=1;" vertex="1" parent="WIyWlLk6GJQsqaUBKTNV-1">
          <mxGeometry x="456" y="270" width="160" height="86" as="geometry">
            <mxRectangle x="456" y="270" width="100" height="30" as="alternateBounds" />
          </mxGeometry>
        </mxCell>
        <mxCell id="_8CsA0RZOHr8ytunJFRW-29" value="+ field: type" style="text;strokeColor=none;fillColor=none;align=left;verticalAlign=top;spacingLeft=4;spacingRight=4;overflow=hidden;rotatable=0;points=[[0,0.5],[1,0.5]];portConstraint=eastwest;whiteSpace=wrap;html=1;autosize=1;" vertex="1" parent="_8CsA0RZOHr8ytunJFRW-28">
          <mxGeometry y="26" width="160" height="26" as="geometry" />
        </mxCell>
        <mxCell id="_8CsA0RZOHr8ytunJFRW-30" value="" style="line;strokeWidth=1;fillColor=none;align=left;verticalAlign=middle;spacingTop=-1;spacingLeft=3;spacingRight=3;rotatable=0;labelPosition=right;points=[];portConstraint=eastwest;strokeColor=inherit;" vertex="1" parent="_8CsA0RZOHr8ytunJFRW-28">
          <mxGeometry y="52" width="160" height="8" as="geometry" />
        </mxCell>
        <mxCell id="_8CsA0RZOHr8ytunJFRW-31" value="+ method(type): type" style="text;strokeColor=none;fillColor=none;align=left;verticalAlign=top;spacingLeft=4;spacingRight=4;overflow=hidden;rotatable=0;points=[[0,0.5],[1,0.5]];portConstraint=eastwest;whiteSpace=wrap;html=1;autosize=1;" vertex="1" parent="_8CsA0RZOHr8ytunJFRW-28">
          <mxGeometry y="60" width="160" height="26" as="geometry" />
        </mxCell>
        <mxCell id="_8CsA0RZOHr8ytunJFRW-90" style="edgeStyle=elbowEdgeStyle;rounded=0;orthogonalLoop=1;jettySize=auto;html=1;entryX=0.5;entryY=0;entryDx=0;entryDy=0;fontFamily=Helvetica;fontSize=12;fontColor=default;fontStyle=1;startSize=8;endSize=8;elbow=vertical;" edge="1" parent="WIyWlLk6GJQsqaUBKTNV-1" source="_8CsA0RZOHr8ytunJFRW-32" target="_8CsA0RZOHr8ytunJFRW-48">
          <mxGeometry relative="1" as="geometry" />
        </mxCell>
        <mxCell id="_8CsA0RZOHr8ytunJFRW-100" value="" style="edgeStyle=elbowEdgeStyle;rounded=0;orthogonalLoop=1;jettySize=auto;elbow=vertical;html=1;strokeColor=default;align=center;verticalAlign=middle;fontFamily=Helvetica;fontSize=12;fontColor=default;fontStyle=1;labelBackgroundColor=default;startSize=8;endArrow=classic;endSize=8;" edge="1" parent="WIyWlLk6GJQsqaUBKTNV-1" source="_8CsA0RZOHr8ytunJFRW-32" target="_8CsA0RZOHr8ytunJFRW-43">
          <mxGeometry relative="1" as="geometry" />
        </mxCell>
        <mxCell id="_8CsA0RZOHr8ytunJFRW-32" value="&lt;b&gt;FishermanShipScript :&amp;nbsp;&lt;br&gt;&lt;/b&gt;&lt;b style=&quot;background-color: initial;&quot;&gt;MonoBehavior&lt;/b&gt;" style="swimlane;fontStyle=1;align=center;verticalAlign=top;childLayout=stackLayout;horizontal=1;startSize=48;horizontalStack=0;resizeParent=1;resizeParentMax=0;resizeLast=0;collapsible=1;marginBottom=0;whiteSpace=wrap;html=1;autosize=1;snapToPoint=0;swimlaneHead=1;arcSize=15;" vertex="1" collapsed="1" parent="WIyWlLk6GJQsqaUBKTNV-1">
          <mxGeometry x="-1290" y="470" width="170" height="48" as="geometry">
            <mxRectangle x="-1240" y="400" width="180" height="216" as="alternateBounds" />
          </mxGeometry>
        </mxCell>
        <mxCell id="_8CsA0RZOHr8ytunJFRW-33" value="&lt;p style=&quot;margin: 0px 0px 0px 4px;&quot;&gt;&lt;span style=&quot;background-color: initial;&quot;&gt;+ FishPrefab : GameObject&lt;/span&gt;&lt;/p&gt;&lt;p style=&quot;margin: 0px 0px 0px 4px;&quot;&gt;&lt;span style=&quot;background-color: initial;&quot;&gt;+ ShipPrefab : GameObject&lt;/span&gt;&lt;/p&gt;&lt;p style=&quot;margin: 0px 0px 0px 4px;&quot;&gt;+ NetOfFish[] : List&lt;/p&gt;&lt;p style=&quot;margin: 0px 0px 0px 4px;&quot;&gt;+ ImpulseForce : const float&lt;/p&gt;" style="text;strokeColor=none;fillColor=none;align=left;verticalAlign=top;spacingLeft=4;spacingRight=4;overflow=hidden;rotatable=0;points=[[0,0.5],[1,0.5]];portConstraint=eastwest;whiteSpace=wrap;html=1;autosize=1;" vertex="1" parent="_8CsA0RZOHr8ytunJFRW-32">
          <mxGeometry y="48" width="180" height="70" as="geometry" />
        </mxCell>
        <mxCell id="_8CsA0RZOHr8ytunJFRW-34" value="" style="line;strokeWidth=1;fillColor=none;align=left;verticalAlign=middle;spacingTop=-1;spacingLeft=3;spacingRight=3;rotatable=0;labelPosition=right;points=[];portConstraint=eastwest;strokeColor=inherit;" vertex="1" parent="_8CsA0RZOHr8ytunJFRW-32">
          <mxGeometry y="118" width="180" height="8" as="geometry" />
        </mxCell>
        <mxCell id="_8CsA0RZOHr8ytunJFRW-35" value="&lt;p style=&quot;margin: 0px 0px 0px 4px;&quot;&gt;&lt;span style=&quot;background-color: initial;&quot;&gt;- OnMouseDown()&lt;/span&gt;&lt;/p&gt;&lt;p style=&quot;margin: 0px 0px 0px 4px;&quot;&gt;- MoveToFish()&lt;/p&gt;&lt;p style=&quot;margin: 0px 0px 0px 4px;&quot;&gt;- OnCollisionEnter2D()&amp;nbsp;&lt;/p&gt;&lt;p style=&quot;margin: 0px 0px 0px 4px;&quot;&gt;- RemoveFishFromSea()&lt;/p&gt;&lt;p style=&quot;margin: 0px 0px 0px 4px;&quot;&gt;- AddFishToNet()&lt;/p&gt;" style="text;strokeColor=none;fillColor=none;align=left;verticalAlign=top;spacingLeft=4;spacingRight=4;overflow=hidden;rotatable=0;points=[[0,0.5],[1,0.5]];portConstraint=eastwest;whiteSpace=wrap;html=1;autosize=1;" vertex="1" parent="_8CsA0RZOHr8ytunJFRW-32">
          <mxGeometry y="126" width="180" height="90" as="geometry" />
        </mxCell>
        <mxCell id="_8CsA0RZOHr8ytunJFRW-40" value="&lt;b&gt;FishSpawnScript :&lt;br&gt;MonoBehavior&lt;/b&gt;" style="swimlane;fontStyle=1;align=center;verticalAlign=top;childLayout=stackLayout;horizontal=1;startSize=48;horizontalStack=0;resizeParent=1;resizeParentMax=0;resizeLast=0;collapsible=1;marginBottom=0;whiteSpace=wrap;html=1;autosize=1;" vertex="1" collapsed="1" parent="WIyWlLk6GJQsqaUBKTNV-1">
          <mxGeometry x="-1040" y="470" width="150" height="48" as="geometry">
            <mxRectangle x="-990" y="400" width="180" height="156" as="alternateBounds" />
          </mxGeometry>
        </mxCell>
        <mxCell id="_8CsA0RZOHr8ytunJFRW-41" value="&lt;p style=&quot;margin: 0px 0px 0px 4px;&quot;&gt;&lt;span style=&quot;background-color: initial;&quot;&gt;+ FishPrefab : GameObject&lt;/span&gt;&lt;/p&gt;&lt;p style=&quot;margin: 0px 0px 0px 4px;&quot;&gt;+ SeaOfFish[] : List&lt;/p&gt;" style="text;strokeColor=none;fillColor=none;align=left;verticalAlign=top;spacingLeft=4;spacingRight=4;overflow=hidden;rotatable=0;points=[[0,0.5],[1,0.5]];portConstraint=eastwest;whiteSpace=wrap;html=1;autosize=1;" vertex="1" parent="_8CsA0RZOHr8ytunJFRW-40">
          <mxGeometry y="48" width="180" height="40" as="geometry" />
        </mxCell>
        <mxCell id="_8CsA0RZOHr8ytunJFRW-42" value="" style="line;strokeWidth=1;fillColor=none;align=left;verticalAlign=middle;spacingTop=-1;spacingLeft=3;spacingRight=3;rotatable=0;labelPosition=right;points=[];portConstraint=eastwest;strokeColor=inherit;" vertex="1" parent="_8CsA0RZOHr8ytunJFRW-40">
          <mxGeometry y="88" width="180" height="8" as="geometry" />
        </mxCell>
        <mxCell id="_8CsA0RZOHr8ytunJFRW-43" value="&lt;p style=&quot;margin: 0px 0px 0px 4px;&quot;&gt;&lt;span style=&quot;background-color: initial;&quot;&gt;-&amp;nbsp;&lt;strike&gt;OnMouseDown()&lt;/strike&gt;&lt;/span&gt;&lt;/p&gt;&lt;p style=&quot;margin: 0px 0px 0px 4px;&quot;&gt;-&amp;nbsp;&lt;strike&gt;CreateFishAtLocation()&lt;/strike&gt;&lt;/p&gt;&lt;p style=&quot;margin: 0px 0px 0px 4px;&quot;&gt;- AddFishToSea()&lt;/p&gt;" style="text;strokeColor=none;fillColor=none;align=left;verticalAlign=top;spacingLeft=4;spacingRight=4;overflow=hidden;rotatable=0;points=[[0,0.5],[1,0.5]];portConstraint=eastwest;whiteSpace=wrap;html=1;autosize=1;" vertex="1" parent="_8CsA0RZOHr8ytunJFRW-40">
          <mxGeometry y="96" width="180" height="60" as="geometry" />
        </mxCell>
        <mxCell id="_8CsA0RZOHr8ytunJFRW-44" value="&lt;b&gt;ScreenUtils :&lt;br&gt;MonoBehavior&lt;/b&gt;" style="swimlane;fontStyle=1;align=center;verticalAlign=top;childLayout=stackLayout;horizontal=1;startSize=48;horizontalStack=0;resizeParent=1;resizeParentMax=0;resizeLast=0;collapsible=1;marginBottom=0;whiteSpace=wrap;html=1;autosize=1;resizeWidth=0;fixedWidth=0;" vertex="1" collapsed="1" parent="WIyWlLk6GJQsqaUBKTNV-1">
          <mxGeometry x="-400" y="600" width="120" height="48" as="geometry">
            <mxRectangle x="-350" y="530" width="210" height="266" as="alternateBounds" />
          </mxGeometry>
        </mxCell>
        <mxCell id="_8CsA0RZOHr8ytunJFRW-45" value="&lt;p style=&quot;margin: 0px 0px 0px 4px;&quot;&gt;+ screenWidth : static int&lt;/p&gt;&lt;p style=&quot;margin: 0px 0px 0px 4px;&quot;&gt;+ screenHeight : static int&lt;/p&gt;&lt;p style=&quot;margin: 0px 0px 0px 4px;&quot;&gt;+ screenLeft : static float&lt;/p&gt;&lt;p style=&quot;margin: 0px 0px 0px 4px;&quot;&gt;+ screenRight : static float&lt;/p&gt;&lt;p style=&quot;margin: 0px 0px 0px 4px;&quot;&gt;+ screenTop : static float&lt;/p&gt;&lt;p style=&quot;margin: 0px 0px 0px 4px;&quot;&gt;+ screenBot : static float&lt;/p&gt;" style="text;strokeColor=none;fillColor=none;align=left;verticalAlign=top;spacingLeft=4;spacingRight=4;overflow=hidden;rotatable=0;points=[[0,0.5],[1,0.5]];portConstraint=eastwest;whiteSpace=wrap;html=1;autosize=1;" vertex="1" parent="_8CsA0RZOHr8ytunJFRW-44">
          <mxGeometry y="48" width="210" height="100" as="geometry" />
        </mxCell>
        <mxCell id="_8CsA0RZOHr8ytunJFRW-46" value="" style="line;strokeWidth=1;fillColor=none;align=left;verticalAlign=middle;spacingTop=-1;spacingLeft=3;spacingRight=3;rotatable=0;labelPosition=right;points=[];portConstraint=eastwest;strokeColor=inherit;" vertex="1" parent="_8CsA0RZOHr8ytunJFRW-44">
          <mxGeometry y="148" width="210" height="8" as="geometry" />
        </mxCell>
        <mxCell id="_8CsA0RZOHr8ytunJFRW-47" value="&lt;p style=&quot;margin: 0px 0px 0px 4px;&quot;&gt;- ScreenLeft : static float&lt;/p&gt;&lt;p style=&quot;margin: 0px 0px 0px 4px;&quot;&gt;- ScreenRight : static float&lt;/p&gt;&lt;p style=&quot;margin: 0px 0px 0px 4px;&quot;&gt;- ScreenTop : static float&lt;/p&gt;&lt;p style=&quot;margin: 0px 0px 0px 4px;&quot;&gt;- ScreenBot : static float&lt;/p&gt;&lt;p style=&quot;margin: 0px 0px 0px 4px;&quot;&gt;- Initialize()&lt;/p&gt;&lt;p style=&quot;margin: 0px 0px 0px 4px;&quot;&gt;- CursorLocation() : static Vector3&lt;/p&gt;&lt;p style=&quot;margin: 0px 0px 0px 4px;&quot;&gt;- WithinBoundary() : static bool&lt;/p&gt;" style="text;strokeColor=none;fillColor=none;align=left;verticalAlign=top;spacingLeft=4;spacingRight=4;overflow=hidden;rotatable=0;points=[[0,0.5],[1,0.5]];portConstraint=eastwest;whiteSpace=wrap;html=1;autosize=1;" vertex="1" parent="_8CsA0RZOHr8ytunJFRW-44">
          <mxGeometry y="156" width="210" height="110" as="geometry" />
        </mxCell>
        <mxCell id="_8CsA0RZOHr8ytunJFRW-92" style="edgeStyle=elbowEdgeStyle;rounded=0;orthogonalLoop=1;jettySize=auto;elbow=vertical;html=1;entryX=0;entryY=0.5;entryDx=0;entryDy=0;strokeColor=default;align=center;verticalAlign=middle;fontFamily=Helvetica;fontSize=12;fontColor=default;fontStyle=1;labelBackgroundColor=default;startSize=8;endArrow=classic;endSize=8;" edge="1" parent="WIyWlLk6GJQsqaUBKTNV-1" source="_8CsA0RZOHr8ytunJFRW-48" target="_8CsA0RZOHr8ytunJFRW-52">
          <mxGeometry relative="1" as="geometry" />
        </mxCell>
        <mxCell id="_8CsA0RZOHr8ytunJFRW-95" style="edgeStyle=elbowEdgeStyle;rounded=0;orthogonalLoop=1;jettySize=auto;elbow=vertical;html=1;strokeColor=default;align=center;verticalAlign=middle;fontFamily=Helvetica;fontSize=12;fontColor=default;fontStyle=1;labelBackgroundColor=default;startSize=8;endArrow=classic;endSize=8;" edge="1" parent="WIyWlLk6GJQsqaUBKTNV-1" source="_8CsA0RZOHr8ytunJFRW-48" target="_8CsA0RZOHr8ytunJFRW-72">
          <mxGeometry relative="1" as="geometry" />
        </mxCell>
        <mxCell id="_8CsA0RZOHr8ytunJFRW-96" style="edgeStyle=elbowEdgeStyle;rounded=0;orthogonalLoop=1;jettySize=auto;elbow=vertical;html=1;strokeColor=default;align=center;verticalAlign=middle;fontFamily=Helvetica;fontSize=12;fontColor=default;fontStyle=1;labelBackgroundColor=default;startSize=8;endArrow=classic;endSize=8;" edge="1" parent="WIyWlLk6GJQsqaUBKTNV-1" source="_8CsA0RZOHr8ytunJFRW-48" target="_8CsA0RZOHr8ytunJFRW-56">
          <mxGeometry relative="1" as="geometry" />
        </mxCell>
        <mxCell id="_8CsA0RZOHr8ytunJFRW-48" value="&lt;b&gt;FishDestroyerScript :&lt;br&gt;MonoBehaviorf&lt;/b&gt;" style="swimlane;fontStyle=1;align=center;verticalAlign=top;childLayout=stackLayout;horizontal=1;startSize=48;horizontalStack=0;resizeParent=1;resizeParentMax=0;resizeLast=0;collapsible=1;marginBottom=0;whiteSpace=wrap;html=1;autosize=1;" vertex="1" collapsed="1" parent="WIyWlLk6GJQsqaUBKTNV-1">
          <mxGeometry x="-1210" y="737" width="160" height="48" as="geometry">
            <mxRectangle x="-1160" y="667" width="250" height="126" as="alternateBounds" />
          </mxGeometry>
        </mxCell>
        <mxCell id="_8CsA0RZOHr8ytunJFRW-49" value="&lt;p style=&quot;margin: 0px 0px 0px 4px;&quot;&gt;&lt;span style=&quot;background-color: initial;&quot;&gt;+ scoreboard : ScoreBoardScript&lt;/span&gt;&lt;br&gt;&lt;/p&gt;&lt;p style=&quot;margin: 0px 0px 0px 4px;&quot;&gt;+ ReceivedFishDestruction : GameObject&lt;/p&gt;" style="text;strokeColor=none;fillColor=none;align=left;verticalAlign=top;spacingLeft=4;spacingRight=4;overflow=hidden;rotatable=0;points=[[0,0.5],[1,0.5]];portConstraint=none;whiteSpace=wrap;html=1;autosize=1;imageWidth=24;arcSize=12;absoluteArcSize=1;strokeOpacity=100;direction=east;part=0;imageAspect=1;" vertex="1" parent="_8CsA0RZOHr8ytunJFRW-48">
          <mxGeometry y="48" width="250" height="40" as="geometry" />
        </mxCell>
        <mxCell id="_8CsA0RZOHr8ytunJFRW-50" value="" style="line;strokeWidth=1;fillColor=none;align=left;verticalAlign=middle;spacingTop=-1;spacingLeft=3;spacingRight=3;rotatable=0;labelPosition=right;points=[];portConstraint=eastwest;strokeColor=inherit;" vertex="1" parent="_8CsA0RZOHr8ytunJFRW-48">
          <mxGeometry y="88" width="250" height="8" as="geometry" />
        </mxCell>
        <mxCell id="_8CsA0RZOHr8ytunJFRW-51" value="- DestroyFishFromSea() : virtual void" style="text;strokeColor=none;fillColor=none;align=left;verticalAlign=top;spacingLeft=4;spacingRight=4;overflow=hidden;rotatable=0;points=[[0,0.5],[1,0.5]];portConstraint=eastwest;whiteSpace=wrap;html=1;autosize=1;" vertex="1" parent="_8CsA0RZOHr8ytunJFRW-48">
          <mxGeometry y="96" width="250" height="30" as="geometry" />
        </mxCell>
        <mxCell id="_8CsA0RZOHr8ytunJFRW-52" value="&lt;b&gt;ScoreBoardScript :&lt;br&gt;MonoBehavior&lt;/b&gt;" style="swimlane;fontStyle=1;align=center;verticalAlign=top;childLayout=stackLayout;horizontal=1;startSize=48;horizontalStack=0;resizeParent=1;resizeParentMax=0;resizeLast=0;collapsible=1;marginBottom=0;whiteSpace=wrap;html=1;autosize=1;" vertex="1" collapsed="1" parent="WIyWlLk6GJQsqaUBKTNV-1">
          <mxGeometry x="-720" y="722" width="150" height="48" as="geometry">
            <mxRectangle x="-670" y="652" width="170" height="156" as="alternateBounds" />
          </mxGeometry>
        </mxCell>
        <mxCell id="_8CsA0RZOHr8ytunJFRW-53" value="&lt;p style=&quot;margin: 0px 0px 0px 4px;&quot;&gt;&lt;span style=&quot;background-color: initial;&quot;&gt;+ totalPoints : static int&lt;/span&gt;&lt;br&gt;&lt;/p&gt;&lt;p style=&quot;margin: 0px 0px 0px 4px;&quot;&gt;+ setScoreValue : static int&lt;/p&gt;" style="text;strokeColor=none;fillColor=none;align=left;verticalAlign=top;spacingLeft=4;spacingRight=4;overflow=hidden;rotatable=0;points=[[0,0.5],[1,0.5]];portConstraint=eastwest;whiteSpace=wrap;html=1;autosize=1;" vertex="1" parent="_8CsA0RZOHr8ytunJFRW-52">
          <mxGeometry y="48" width="170" height="40" as="geometry" />
        </mxCell>
        <mxCell id="_8CsA0RZOHr8ytunJFRW-54" value="" style="line;strokeWidth=1;fillColor=none;align=left;verticalAlign=middle;spacingTop=-1;spacingLeft=3;spacingRight=3;rotatable=0;labelPosition=right;points=[];portConstraint=eastwest;strokeColor=inherit;" vertex="1" parent="_8CsA0RZOHr8ytunJFRW-52">
          <mxGeometry y="88" width="170" height="8" as="geometry" />
        </mxCell>
        <mxCell id="_8CsA0RZOHr8ytunJFRW-55" value="&lt;p style=&quot;margin: 0px 0px 0px 4px;&quot;&gt;&lt;span style=&quot;background-color: initial;&quot;&gt;- TotalPoints&lt;/span&gt;&lt;br&gt;&lt;/p&gt;&lt;p style=&quot;margin: 0px 0px 0px 4px;&quot;&gt;- SetScoreValue&lt;/p&gt;&lt;p style=&quot;margin: 0px 0px 0px 4px;&quot;&gt;- AddPoints()&amp;nbsp;&lt;/p&gt;" style="text;strokeColor=none;fillColor=none;align=left;verticalAlign=top;spacingLeft=4;spacingRight=4;overflow=hidden;rotatable=0;points=[[0,0.5],[1,0.5]];portConstraint=eastwest;whiteSpace=wrap;html=1;autosize=1;" vertex="1" parent="_8CsA0RZOHr8ytunJFRW-52">
          <mxGeometry y="96" width="170" height="60" as="geometry" />
        </mxCell>
        <mxCell id="_8CsA0RZOHr8ytunJFRW-56" value="&lt;b&gt;RegularFishScript :&lt;br&gt;FishDestroyerScript&lt;/b&gt;" style="swimlane;fontStyle=1;align=center;verticalAlign=top;childLayout=stackLayout;horizontal=1;startSize=48;horizontalStack=0;resizeParent=1;resizeParentMax=0;resizeLast=0;collapsible=1;marginBottom=0;whiteSpace=wrap;html=1;autosize=1;" vertex="1" collapsed="1" parent="WIyWlLk6GJQsqaUBKTNV-1">
          <mxGeometry x="-1040" y="920" width="160" height="48" as="geometry">
            <mxRectangle x="-990" y="850" width="230" height="116" as="alternateBounds" />
          </mxGeometry>
        </mxCell>
        <mxCell id="_8CsA0RZOHr8ytunJFRW-57" value="+" style="text;strokeColor=none;fillColor=none;align=left;verticalAlign=top;spacingLeft=4;spacingRight=4;overflow=hidden;rotatable=0;points=[[0,0.5],[1,0.5]];portConstraint=eastwest;whiteSpace=wrap;html=1;autosize=1;" vertex="1" parent="_8CsA0RZOHr8ytunJFRW-56">
          <mxGeometry y="48" width="230" height="30" as="geometry" />
        </mxCell>
        <mxCell id="_8CsA0RZOHr8ytunJFRW-58" value="" style="line;strokeWidth=1;fillColor=none;align=left;verticalAlign=middle;spacingTop=-1;spacingLeft=3;spacingRight=3;rotatable=0;labelPosition=right;points=[];portConstraint=eastwest;strokeColor=inherit;" vertex="1" parent="_8CsA0RZOHr8ytunJFRW-56">
          <mxGeometry y="78" width="230" height="8" as="geometry" />
        </mxCell>
        <mxCell id="_8CsA0RZOHr8ytunJFRW-59" value="- DestroyFishFromSea() : override void" style="text;strokeColor=none;fillColor=none;align=left;verticalAlign=top;spacingLeft=4;spacingRight=4;overflow=hidden;rotatable=0;points=[[0,0.5],[1,0.5]];portConstraint=eastwest;whiteSpace=wrap;html=1;autosize=1;" vertex="1" parent="_8CsA0RZOHr8ytunJFRW-56">
          <mxGeometry y="86" width="230" height="30" as="geometry" />
        </mxCell>
        <mxCell id="_8CsA0RZOHr8ytunJFRW-60" value="&lt;b&gt;BurningFishScript :&lt;br&gt;AnimatedFishScript&lt;/b&gt;" style="swimlane;fontStyle=1;align=center;verticalAlign=top;childLayout=stackLayout;horizontal=1;startSize=48;horizontalStack=0;resizeParent=1;resizeParentMax=0;resizeLast=0;collapsible=1;marginBottom=0;whiteSpace=wrap;html=1;autosize=1;" vertex="1" collapsed="1" parent="WIyWlLk6GJQsqaUBKTNV-1">
          <mxGeometry x="-1230" y="1083" width="150" height="48" as="geometry">
            <mxRectangle x="-1180" y="1013" width="230" height="156" as="alternateBounds" />
          </mxGeometry>
        </mxCell>
        <mxCell id="_8CsA0RZOHr8ytunJFRW-61" value="&lt;p style=&quot;margin: 0px 0px 0px 4px;&quot;&gt;+ BurningPrefab : GameObject&lt;/p&gt;&lt;p style=&quot;margin: 0px 0px 0px 4px;&quot;&gt;+ burnTimer : TimerScript&lt;/p&gt;&lt;p style=&quot;margin: 0px 0px 0px 4px;&quot;&gt;+ burningLifetime : float&lt;/p&gt;&lt;div&gt;&lt;br&gt;&lt;/div&gt;" style="text;strokeColor=none;fillColor=none;align=left;verticalAlign=top;spacingLeft=4;spacingRight=4;overflow=hidden;rotatable=0;points=[[0,0.5],[1,0.5]];portConstraint=eastwest;whiteSpace=wrap;html=1;autosize=1;" vertex="1" parent="_8CsA0RZOHr8ytunJFRW-60">
          <mxGeometry y="48" width="230" height="70" as="geometry" />
        </mxCell>
        <mxCell id="_8CsA0RZOHr8ytunJFRW-62" value="" style="line;strokeWidth=1;fillColor=none;align=left;verticalAlign=middle;spacingTop=-1;spacingLeft=3;spacingRight=3;rotatable=0;labelPosition=right;points=[];portConstraint=eastwest;strokeColor=inherit;" vertex="1" parent="_8CsA0RZOHr8ytunJFRW-60">
          <mxGeometry y="118" width="230" height="8" as="geometry" />
        </mxCell>
        <mxCell id="_8CsA0RZOHr8ytunJFRW-63" value="- DestroyFishFromSea() : override void" style="text;strokeColor=none;fillColor=none;align=left;verticalAlign=top;spacingLeft=4;spacingRight=4;overflow=hidden;rotatable=0;points=[[0,0.5],[1,0.5]];portConstraint=eastwest;whiteSpace=wrap;html=1;autosize=1;" vertex="1" parent="_8CsA0RZOHr8ytunJFRW-60">
          <mxGeometry y="126" width="230" height="30" as="geometry" />
        </mxCell>
        <mxCell id="_8CsA0RZOHr8ytunJFRW-64" value="&lt;b&gt;TimerScript :&lt;br&gt;MonoBehavior&lt;/b&gt;" style="swimlane;fontStyle=1;align=center;verticalAlign=top;childLayout=stackLayout;horizontal=1;startSize=48;horizontalStack=0;resizeParent=1;resizeParentMax=0;resizeLast=0;collapsible=1;marginBottom=0;whiteSpace=wrap;html=1;autosize=1;" vertex="1" collapsed="1" parent="WIyWlLk6GJQsqaUBKTNV-1">
          <mxGeometry x="-690" y="1070" width="120" height="48" as="geometry">
            <mxRectangle x="-640" y="1000" width="160" height="296" as="alternateBounds" />
          </mxGeometry>
        </mxCell>
        <mxCell id="_8CsA0RZOHr8ytunJFRW-65" value="&lt;p style=&quot;margin: 0px 0px 0px 4px;&quot;&gt;+ startPoint : float&lt;/p&gt;&lt;p style=&quot;margin: 0px 0px 0px 4px;&quot;&gt;+ endPoint : float&lt;/p&gt;&lt;p style=&quot;margin: 0px 0px 0px 4px;&quot;&gt;+ elapsed : float&lt;/p&gt;&lt;p style=&quot;margin: 0px 0px 0px 4px;&quot;&gt;+ running : bool&lt;/p&gt;" style="text;strokeColor=none;fillColor=none;align=left;verticalAlign=top;spacingLeft=4;spacingRight=4;overflow=hidden;rotatable=0;points=[[0,0.5],[1,0.5]];portConstraint=eastwest;whiteSpace=wrap;html=1;autosize=1;" vertex="1" parent="_8CsA0RZOHr8ytunJFRW-64">
          <mxGeometry y="48" width="160" height="70" as="geometry" />
        </mxCell>
        <mxCell id="_8CsA0RZOHr8ytunJFRW-66" value="" style="line;strokeWidth=1;fillColor=none;align=left;verticalAlign=middle;spacingTop=-1;spacingLeft=3;spacingRight=3;rotatable=0;labelPosition=right;points=[];portConstraint=eastwest;strokeColor=inherit;" vertex="1" parent="_8CsA0RZOHr8ytunJFRW-64">
          <mxGeometry y="118" width="160" height="8" as="geometry" />
        </mxCell>
        <mxCell id="_8CsA0RZOHr8ytunJFRW-67" value="&lt;p style=&quot;margin: 0px 0px 0px 4px;&quot;&gt;- StartPoint&lt;/p&gt;&lt;p style=&quot;margin: 0px 0px 0px 4px;&quot;&gt;- EndPoint&lt;/p&gt;&lt;p style=&quot;margin: 0px 0px 0px 4px;&quot;&gt;- Elapsed&lt;/p&gt;&lt;p style=&quot;margin: 0px 0px 0px 4px;&quot;&gt;- Running&lt;/p&gt;&lt;p style=&quot;margin: 0px 0px 0px 4px;&quot;&gt;- DeactivateTimer()&lt;/p&gt;&lt;p style=&quot;margin: 0px 0px 0px 4px;&quot;&gt;- ActivateTimer()&lt;/p&gt;&lt;p style=&quot;margin: 0px 0px 0px 4px;&quot;&gt;- KillTimer() // unusable&lt;/p&gt;&lt;p style=&quot;margin: 0px 0px 0px 4px;&quot;&gt;- CountUp()&lt;/p&gt;&lt;p style=&quot;margin: 0px 0px 0px 4px;&quot;&gt;- RestartTimer()&lt;/p&gt;&lt;p style=&quot;margin: 0px 0px 0px 4px;&quot;&gt;- UnderTime()&lt;/p&gt;&lt;p style=&quot;margin: 0px 0px 0px 4px;&quot;&gt;- OverTime()&lt;/p&gt;" style="text;strokeColor=none;fillColor=none;align=left;verticalAlign=top;spacingLeft=4;spacingRight=4;overflow=hidden;rotatable=0;points=[[0,0.5],[1,0.5]];portConstraint=eastwest;whiteSpace=wrap;html=1;autosize=1;" vertex="1" parent="_8CsA0RZOHr8ytunJFRW-64">
          <mxGeometry y="126" width="160" height="170" as="geometry" />
        </mxCell>
        <mxCell id="_8CsA0RZOHr8ytunJFRW-84" value="" style="edgeStyle=elbowEdgeStyle;rounded=0;orthogonalLoop=1;jettySize=auto;html=1;fontFamily=Helvetica;fontSize=12;fontColor=default;fontStyle=1;startSize=8;endSize=8;elbow=vertical;" edge="1" parent="WIyWlLk6GJQsqaUBKTNV-1" source="_8CsA0RZOHr8ytunJFRW-68" target="_8CsA0RZOHr8ytunJFRW-82">
          <mxGeometry relative="1" as="geometry" />
        </mxCell>
        <mxCell id="_8CsA0RZOHr8ytunJFRW-68" value="&lt;b&gt;GameInitializer :&amp;nbsp;&lt;br&gt;MonoBehavior&lt;/b&gt;" style="swimlane;fontStyle=1;align=center;verticalAlign=top;childLayout=stackLayout;horizontal=1;startSize=48;horizontalStack=0;resizeParent=1;resizeParentMax=0;resizeLast=0;collapsible=1;marginBottom=0;whiteSpace=wrap;html=1;autosize=1;" vertex="1" collapsed="1" parent="WIyWlLk6GJQsqaUBKTNV-1">
          <mxGeometry x="-400" y="470" width="140" height="48" as="geometry">
            <mxRectangle x="-350" y="400" width="200" height="116" as="alternateBounds" />
          </mxGeometry>
        </mxCell>
        <mxCell id="_8CsA0RZOHr8ytunJFRW-69" value="+&amp;nbsp;" style="text;strokeColor=none;fillColor=none;align=left;verticalAlign=top;spacingLeft=4;spacingRight=4;overflow=hidden;rotatable=0;points=[[0,0.5],[1,0.5]];portConstraint=eastwest;whiteSpace=wrap;html=1;autosize=1;" vertex="1" parent="_8CsA0RZOHr8ytunJFRW-68">
          <mxGeometry y="48" width="200" height="30" as="geometry" />
        </mxCell>
        <mxCell id="_8CsA0RZOHr8ytunJFRW-70" value="" style="line;strokeWidth=1;fillColor=none;align=left;verticalAlign=middle;spacingTop=-1;spacingLeft=3;spacingRight=3;rotatable=0;labelPosition=right;points=[];portConstraint=eastwest;strokeColor=inherit;" vertex="1" parent="_8CsA0RZOHr8ytunJFRW-68">
          <mxGeometry y="78" width="200" height="8" as="geometry" />
        </mxCell>
        <mxCell id="_8CsA0RZOHr8ytunJFRW-71" value="- Start() {ScreenUtils.Initialize()}" style="text;strokeColor=none;fillColor=none;align=left;verticalAlign=top;spacingLeft=4;spacingRight=4;overflow=hidden;rotatable=0;points=[[0,0.5],[1,0.5]];portConstraint=eastwest;whiteSpace=wrap;html=1;autosize=1;" vertex="1" parent="_8CsA0RZOHr8ytunJFRW-68">
          <mxGeometry y="86" width="200" height="30" as="geometry" />
        </mxCell>
        <mxCell id="_8CsA0RZOHr8ytunJFRW-97" style="edgeStyle=elbowEdgeStyle;rounded=0;orthogonalLoop=1;jettySize=auto;elbow=vertical;html=1;entryX=0.5;entryY=0;entryDx=0;entryDy=0;strokeColor=default;align=center;verticalAlign=middle;fontFamily=Helvetica;fontSize=12;fontColor=default;fontStyle=1;labelBackgroundColor=default;startSize=8;endArrow=classic;endSize=8;" edge="1" parent="WIyWlLk6GJQsqaUBKTNV-1" source="_8CsA0RZOHr8ytunJFRW-72" target="_8CsA0RZOHr8ytunJFRW-76">
          <mxGeometry relative="1" as="geometry" />
        </mxCell>
        <mxCell id="_8CsA0RZOHr8ytunJFRW-98" style="edgeStyle=elbowEdgeStyle;rounded=0;orthogonalLoop=1;jettySize=auto;elbow=vertical;html=1;entryX=0.5;entryY=0;entryDx=0;entryDy=0;strokeColor=default;align=center;verticalAlign=middle;fontFamily=Helvetica;fontSize=12;fontColor=default;fontStyle=1;labelBackgroundColor=default;startSize=8;endArrow=classic;endSize=8;" edge="1" parent="WIyWlLk6GJQsqaUBKTNV-1" source="_8CsA0RZOHr8ytunJFRW-72" target="_8CsA0RZOHr8ytunJFRW-60">
          <mxGeometry relative="1" as="geometry" />
        </mxCell>
        <mxCell id="_8CsA0RZOHr8ytunJFRW-72" value="&lt;b&gt;AnimatedFishScript :&lt;br&gt;FishDestroyerScript&lt;/b&gt;" style="swimlane;fontStyle=1;align=center;verticalAlign=top;childLayout=stackLayout;horizontal=1;startSize=48;horizontalStack=0;resizeParent=1;resizeParentMax=0;resizeLast=0;collapsible=1;marginBottom=0;whiteSpace=wrap;html=1;autosize=1;" vertex="1" collapsed="1" parent="WIyWlLk6GJQsqaUBKTNV-1">
          <mxGeometry x="-1380" y="920" width="160" height="48" as="geometry">
            <mxRectangle x="-1330" y="850" width="240" height="116" as="alternateBounds" />
          </mxGeometry>
        </mxCell>
        <mxCell id="_8CsA0RZOHr8ytunJFRW-73" value="+ ReceivedFishAnimation : GameObject" style="text;strokeColor=none;fillColor=none;align=left;verticalAlign=top;spacingLeft=4;spacingRight=4;overflow=hidden;rotatable=0;points=[[0,0.5],[1,0.5]];portConstraint=eastwest;whiteSpace=wrap;html=1;autosize=1;" vertex="1" parent="_8CsA0RZOHr8ytunJFRW-72">
          <mxGeometry y="48" width="240" height="30" as="geometry" />
        </mxCell>
        <mxCell id="_8CsA0RZOHr8ytunJFRW-74" value="" style="line;strokeWidth=1;fillColor=none;align=left;verticalAlign=middle;spacingTop=-1;spacingLeft=3;spacingRight=3;rotatable=0;labelPosition=right;points=[];portConstraint=eastwest;strokeColor=inherit;" vertex="1" parent="_8CsA0RZOHr8ytunJFRW-72">
          <mxGeometry y="78" width="240" height="8" as="geometry" />
        </mxCell>
        <mxCell id="_8CsA0RZOHr8ytunJFRW-75" value="-" style="text;strokeColor=none;fillColor=none;align=left;verticalAlign=top;spacingLeft=4;spacingRight=4;overflow=hidden;rotatable=0;points=[[0,0.5],[1,0.5]];portConstraint=eastwest;whiteSpace=wrap;html=1;autosize=1;" vertex="1" parent="_8CsA0RZOHr8ytunJFRW-72">
          <mxGeometry y="86" width="240" height="30" as="geometry" />
        </mxCell>
        <mxCell id="_8CsA0RZOHr8ytunJFRW-76" value="&lt;b&gt;ExplodingFishScript :&lt;br&gt;AnimatedFishScript&lt;/b&gt;" style="swimlane;fontStyle=1;align=center;verticalAlign=top;childLayout=stackLayout;horizontal=1;startSize=48;horizontalStack=0;resizeParent=1;resizeParentMax=0;resizeLast=0;collapsible=1;marginBottom=0;whiteSpace=wrap;html=1;autosize=1;" vertex="1" collapsed="1" parent="WIyWlLk6GJQsqaUBKTNV-1">
          <mxGeometry x="-1550" y="1083" width="160" height="48" as="geometry">
            <mxRectangle x="-1500" y="1013" width="230" height="126" as="alternateBounds" />
          </mxGeometry>
        </mxCell>
        <mxCell id="_8CsA0RZOHr8ytunJFRW-77" value="+ ExplosionPrefab : GameObject&lt;div&gt;&lt;br&gt;&lt;/div&gt;" style="text;strokeColor=none;fillColor=none;align=left;verticalAlign=top;spacingLeft=4;spacingRight=4;overflow=hidden;rotatable=0;points=[[0,0.5],[1,0.5]];portConstraint=eastwest;whiteSpace=wrap;html=1;autosize=1;" vertex="1" parent="_8CsA0RZOHr8ytunJFRW-76">
          <mxGeometry y="48" width="230" height="40" as="geometry" />
        </mxCell>
        <mxCell id="_8CsA0RZOHr8ytunJFRW-78" value="" style="line;strokeWidth=1;fillColor=none;align=left;verticalAlign=middle;spacingTop=-1;spacingLeft=3;spacingRight=3;rotatable=0;labelPosition=right;points=[];portConstraint=eastwest;strokeColor=inherit;" vertex="1" parent="_8CsA0RZOHr8ytunJFRW-76">
          <mxGeometry y="88" width="230" height="8" as="geometry" />
        </mxCell>
        <mxCell id="_8CsA0RZOHr8ytunJFRW-79" value="- DestroyFishFromSea() : override void" style="text;strokeColor=none;fillColor=none;align=left;verticalAlign=top;spacingLeft=4;spacingRight=4;overflow=hidden;rotatable=0;points=[[0,0.5],[1,0.5]];portConstraint=eastwest;whiteSpace=wrap;html=1;autosize=1;" vertex="1" parent="_8CsA0RZOHr8ytunJFRW-76">
          <mxGeometry y="96" width="230" height="30" as="geometry" />
        </mxCell>
        <mxCell id="_8CsA0RZOHr8ytunJFRW-82" value="Main Camera" style="ellipse;strokeColor=default;align=center;verticalAlign=bottom;fontFamily=Helvetica;fontSize=12;fontColor=default;fillColor=none;html=1;labelBorderColor=none;labelBackgroundColor=none;noLabel=0;collapsible=0;backgroundOutline=0;movableLabel=1;aspect=fixed;enumerate=0;" vertex="1" parent="WIyWlLk6GJQsqaUBKTNV-1">
          <mxGeometry x="-78" y="515" width="28" height="28" as="geometry">
            <mxPoint y="20" as="offset" />
          </mxGeometry>
        </mxCell>
        <mxCell id="_8CsA0RZOHr8ytunJFRW-102" style="edgeStyle=elbowEdgeStyle;rounded=0;orthogonalLoop=1;jettySize=auto;elbow=vertical;html=1;entryX=0.01;entryY=0.647;entryDx=0;entryDy=0;entryPerimeter=0;strokeColor=default;align=center;verticalAlign=middle;fontFamily=Helvetica;fontSize=12;fontColor=default;fontStyle=1;labelBackgroundColor=default;startSize=8;endArrow=classic;endSize=8;" edge="1" parent="WIyWlLk6GJQsqaUBKTNV-1" source="_8CsA0RZOHr8ytunJFRW-60" target="_8CsA0RZOHr8ytunJFRW-65">
          <mxGeometry relative="1" as="geometry" />
        </mxCell>
        <mxCell id="_8CsA0RZOHr8ytunJFRW-104" value="&lt;div&gt;&lt;b&gt;RegularFishScript :&lt;br&gt;FishDestroyerScript&lt;/b&gt;&lt;br&gt;&lt;/div&gt;" style="swimlane;fontStyle=1;align=center;verticalAlign=top;childLayout=stackLayout;horizontal=1;startSize=48;horizontalStack=0;resizeParent=1;resizeParentMax=0;resizeLast=0;collapsible=1;marginBottom=0;whiteSpace=wrap;html=1;autosize=1;" vertex="1" collapsed="1" parent="WIyWlLk6GJQsqaUBKTNV-1">
          <mxGeometry x="-780" y="460" width="160" height="48" as="geometry">
            <mxRectangle x="-730" y="390" width="160" height="86" as="alternateBounds" />
          </mxGeometry>
        </mxCell>
        <mxCell id="_8CsA0RZOHr8ytunJFRW-105" value="+ field: type" style="text;strokeColor=none;fillColor=none;align=left;verticalAlign=top;spacingLeft=4;spacingRight=4;overflow=hidden;rotatable=0;points=[[0,0.5],[1,0.5]];portConstraint=eastwest;whiteSpace=wrap;html=1;autosize=1;" vertex="1" parent="_8CsA0RZOHr8ytunJFRW-104">
          <mxGeometry y="26" width="160" height="26" as="geometry" />
        </mxCell>
        <mxCell id="_8CsA0RZOHr8ytunJFRW-106" value="" style="line;strokeWidth=1;fillColor=none;align=left;verticalAlign=middle;spacingTop=-1;spacingLeft=3;spacingRight=3;rotatable=0;labelPosition=right;points=[];portConstraint=eastwest;strokeColor=inherit;" vertex="1" parent="_8CsA0RZOHr8ytunJFRW-104">
          <mxGeometry y="52" width="160" height="8" as="geometry" />
        </mxCell>
        <mxCell id="_8CsA0RZOHr8ytunJFRW-107" value="+ method(type): type" style="text;strokeColor=none;fillColor=none;align=left;verticalAlign=top;spacingLeft=4;spacingRight=4;overflow=hidden;rotatable=0;points=[[0,0.5],[1,0.5]];portConstraint=eastwest;whiteSpace=wrap;html=1;autosize=1;" vertex="1" parent="_8CsA0RZOHr8ytunJFRW-104">
          <mxGeometry y="60" width="160" height="26" as="geometry" />
        </mxCell>
        <mxCell id="_8CsA0RZOHr8ytunJFRW-110" value="&lt;p style=&quot;margin:0px;margin-top:4px;text-align:center;&quot;&gt;&lt;b&gt;Class&lt;/b&gt;&lt;/p&gt;&lt;hr size=&quot;1&quot; style=&quot;border-style:solid;&quot;/&gt;&lt;p style=&quot;margin:0px;margin-left:4px;&quot;&gt;+ field: Type&lt;/p&gt;&lt;hr size=&quot;1&quot; style=&quot;border-style:solid;&quot;/&gt;&lt;p style=&quot;margin:0px;margin-left:4px;&quot;&gt;+ method(): Type&lt;/p&gt;" style="verticalAlign=top;align=left;overflow=fill;html=1;whiteSpace=wrap;" vertex="1" parent="WIyWlLk6GJQsqaUBKTNV-1">
          <mxGeometry x="-1610" y="176" width="180" height="180" as="geometry" />
        </mxCell>
        <mxCell id="_8CsA0RZOHr8ytunJFRW-111" value="" style="shape=providedRequiredInterface;html=1;verticalLabelPosition=bottom;sketch=0;" vertex="1" parent="WIyWlLk6GJQsqaUBKTNV-1">
          <mxGeometry x="-1610" y="96" width="40" height="40" as="geometry" />
        </mxCell>
        <mxCell id="_8CsA0RZOHr8ytunJFRW-112" value="Main Camera" style="shape=providedRequiredInterface;html=1;verticalLabelPosition=bottom;sketch=0;verticalAlign=top;" vertex="1" parent="WIyWlLk6GJQsqaUBKTNV-1">
          <mxGeometry x="-1610" y="16" width="40" height="40" as="geometry" />
        </mxCell>
        <mxCell id="_8CsA0RZOHr8ytunJFRW-113" value="&lt;p style=&quot;margin:0px;margin-top:4px;text-align:center;&quot;&gt;&lt;b&gt;Class&lt;/b&gt;&lt;/p&gt;&lt;hr size=&quot;1&quot; style=&quot;border-style:solid;&quot;&gt;&lt;p style=&quot;margin:0px;margin-left:4px;&quot;&gt;+&amp;nbsp;&lt;/p&gt;&lt;hr size=&quot;1&quot; style=&quot;border-style:solid;&quot;&gt;&lt;p style=&quot;margin:0px;margin-left:4px;&quot;&gt;-&amp;nbsp;&lt;/p&gt;" style="verticalAlign=top;align=left;overflow=fill;html=1;whiteSpace=wrap;" vertex="1" parent="WIyWlLk6GJQsqaUBKTNV-1">
          <mxGeometry x="-1510" y="176" width="180" height="180" as="geometry" />
        </mxCell>
        <mxCell id="_8CsA0RZOHr8ytunJFRW-114" value="&lt;p style=&quot;margin:0px;margin-top:4px;text-align:center;&quot;&gt;&lt;b&gt;Class&lt;/b&gt;&lt;/p&gt;&lt;hr size=&quot;1&quot; style=&quot;border-style:solid;&quot;&gt;&lt;p style=&quot;margin:0px;margin-left:4px;&quot;&gt;+&amp;nbsp;&lt;/p&gt;&lt;hr size=&quot;1&quot; style=&quot;border-style:solid;&quot;&gt;&lt;p style=&quot;margin:0px;margin-left:4px;&quot;&gt;-&amp;nbsp;&lt;/p&gt;" style="verticalAlign=top;align=left;overflow=fill;html=1;whiteSpace=wrap;collapsible=1;" vertex="1" parent="WIyWlLk6GJQsqaUBKTNV-1">
          <mxGeometry x="-1410" y="176" width="180" height="180" as="geometry">
            <mxRectangle x="720" y="360" width="70" height="90" as="alternateBounds" />
          </mxGeometry>
        </mxCell>
        <mxCell id="_8CsA0RZOHr8ytunJFRW-115" value="" style="ellipse;html=1;shape=endState;align=left;verticalAlign=top;fontFamily=Helvetica;fontSize=12;strokeColor=default;fillColor=none;" vertex="1" parent="WIyWlLk6GJQsqaUBKTNV-1">
          <mxGeometry x="-1535" y="16" width="45" height="45" as="geometry" />
        </mxCell>
        <mxCell id="_8CsA0RZOHr8ytunJFRW-116" value="" style="ellipse;whiteSpace=wrap;html=1;aspect=fixed;strokeColor=default;align=left;verticalAlign=top;fontFamily=Helvetica;fontSize=12;fontColor=default;fillColor=default;" vertex="1" parent="WIyWlLk6GJQsqaUBKTNV-1">
          <mxGeometry x="-1450" y="16" width="40" height="40" as="geometry" />
        </mxCell>
        <mxCell id="_8CsA0RZOHr8ytunJFRW-117" value="Main Camera" style="ellipse;strokeColor=default;align=center;verticalAlign=bottom;fontFamily=Helvetica;fontSize=12;fontColor=default;fillColor=none;html=1;labelBorderColor=none;labelBackgroundColor=none;noLabel=0;collapsible=0;backgroundOutline=0;movableLabel=1;aspect=fixed;enumerate=0;" vertex="1" parent="WIyWlLk6GJQsqaUBKTNV-1">
          <mxGeometry x="-1370" y="16" width="40" height="40" as="geometry">
            <mxPoint y="20" as="offset" />
          </mxGeometry>
        </mxCell>
        <mxCell id="_8CsA0RZOHr8ytunJFRW-118" value="Main Camera" style="ellipse;strokeColor=default;align=center;verticalAlign=bottom;fontFamily=Helvetica;fontSize=12;fontColor=default;fillColor=none;html=1;labelBorderColor=none;labelBackgroundColor=none;noLabel=0;collapsible=0;backgroundOutline=0;movableLabel=1;aspect=fixed;enumerate=0;" vertex="1" parent="WIyWlLk6GJQsqaUBKTNV-1">
          <mxGeometry x="-1290" y="16" width="28" height="28" as="geometry">
            <mxPoint y="20" as="offset" />
          </mxGeometry>
        </mxCell>
        <mxCell id="_8CsA0RZOHr8ytunJFRW-119" value="Classname" style="swimlane;fontStyle=1;align=center;verticalAlign=top;childLayout=stackLayout;horizontal=1;startSize=26;horizontalStack=0;resizeParent=1;resizeParentMax=0;resizeLast=0;collapsible=1;marginBottom=0;whiteSpace=wrap;html=1;autosize=1;" vertex="1" parent="WIyWlLk6GJQsqaUBKTNV-1">
          <mxGeometry x="-1194" y="246" width="160" height="86" as="geometry">
            <mxRectangle x="456" y="270" width="100" height="30" as="alternateBounds" />
          </mxGeometry>
        </mxCell>
        <mxCell id="_8CsA0RZOHr8ytunJFRW-120" value="+ field: type" style="text;strokeColor=none;fillColor=none;align=left;verticalAlign=top;spacingLeft=4;spacingRight=4;overflow=hidden;rotatable=0;points=[[0,0.5],[1,0.5]];portConstraint=eastwest;whiteSpace=wrap;html=1;autosize=1;" vertex="1" parent="_8CsA0RZOHr8ytunJFRW-119">
          <mxGeometry y="26" width="160" height="26" as="geometry" />
        </mxCell>
        <mxCell id="_8CsA0RZOHr8ytunJFRW-121" value="" style="line;strokeWidth=1;fillColor=none;align=left;verticalAlign=middle;spacingTop=-1;spacingLeft=3;spacingRight=3;rotatable=0;labelPosition=right;points=[];portConstraint=eastwest;strokeColor=inherit;" vertex="1" parent="_8CsA0RZOHr8ytunJFRW-119">
          <mxGeometry y="52" width="160" height="8" as="geometry" />
        </mxCell>
        <mxCell id="_8CsA0RZOHr8ytunJFRW-122" value="+ method(type): type" style="text;strokeColor=none;fillColor=none;align=left;verticalAlign=top;spacingLeft=4;spacingRight=4;overflow=hidden;rotatable=0;points=[[0,0.5],[1,0.5]];portConstraint=eastwest;whiteSpace=wrap;html=1;autosize=1;" vertex="1" parent="_8CsA0RZOHr8ytunJFRW-119">
          <mxGeometry y="60" width="160" height="26" as="geometry" />
        </mxCell>
      </root>
    </mxGraphModel>
  </diagram>
  <diagram name="Copy of Page-1" id="TDVPRO8SO85vrQZddkdE">
    <mxGraphModel dx="3065" dy="875" grid="1" gridSize="10" guides="1" tooltips="1" connect="1" arrows="1" fold="1" page="1" pageScale="1" pageWidth="827" pageHeight="1169" math="0" shadow="0">
      <root>
        <mxCell id="Y0SBbjK8kKm6BncAYIOs-0" />
        <mxCell id="Y0SBbjK8kKm6BncAYIOs-1" parent="Y0SBbjK8kKm6BncAYIOs-0" />
        <mxCell id="162FxMgAlP1VKG4DYquW-0" style="edgeStyle=elbowEdgeStyle;rounded=0;orthogonalLoop=1;jettySize=auto;html=1;entryX=0.5;entryY=0;entryDx=0;entryDy=0;fontFamily=Helvetica;fontSize=12;fontColor=default;fontStyle=1;startSize=8;endSize=8;elbow=vertical;" edge="1" parent="Y0SBbjK8kKm6BncAYIOs-1" source="162FxMgAlP1VKG4DYquW-2" target="162FxMgAlP1VKG4DYquW-17">
          <mxGeometry relative="1" as="geometry" />
        </mxCell>
        <mxCell id="162FxMgAlP1VKG4DYquW-1" value="" style="edgeStyle=elbowEdgeStyle;rounded=0;orthogonalLoop=1;jettySize=auto;elbow=vertical;html=1;strokeColor=default;align=center;verticalAlign=middle;fontFamily=Helvetica;fontSize=12;fontColor=default;fontStyle=1;labelBackgroundColor=default;startSize=8;endArrow=classic;endSize=8;" edge="1" parent="Y0SBbjK8kKm6BncAYIOs-1" source="162FxMgAlP1VKG4DYquW-2" target="162FxMgAlP1VKG4DYquW-9">
          <mxGeometry relative="1" as="geometry" />
        </mxCell>
        <mxCell id="162FxMgAlP1VKG4DYquW-2" value="&lt;b&gt;FishermanShipScript :&amp;nbsp;&lt;br&gt;&lt;/b&gt;&lt;b style=&quot;background-color: initial;&quot;&gt;MonoBehavior&lt;/b&gt;" style="swimlane;fontStyle=1;align=center;verticalAlign=top;childLayout=stackLayout;horizontal=1;startSize=48;horizontalStack=0;resizeParent=1;resizeParentMax=0;resizeLast=0;collapsible=1;marginBottom=0;whiteSpace=wrap;html=1;autosize=1;snapToPoint=0;swimlaneHead=1;arcSize=15;" vertex="1" parent="Y0SBbjK8kKm6BncAYIOs-1">
          <mxGeometry x="-1320" y="580" width="180" height="216" as="geometry">
            <mxRectangle x="-1320" y="580" width="170" height="48" as="alternateBounds" />
          </mxGeometry>
        </mxCell>
        <mxCell id="162FxMgAlP1VKG4DYquW-3" value="&lt;p style=&quot;margin: 0px 0px 0px 4px;&quot;&gt;&lt;span style=&quot;background-color: initial;&quot;&gt;+ FishPrefab : GameObject&lt;/span&gt;&lt;/p&gt;&lt;p style=&quot;margin: 0px 0px 0px 4px;&quot;&gt;&lt;span style=&quot;background-color: initial;&quot;&gt;+ ShipPrefab : GameObject&lt;/span&gt;&lt;/p&gt;&lt;p style=&quot;margin: 0px 0px 0px 4px;&quot;&gt;+ NetOfFish[] : List&lt;/p&gt;&lt;p style=&quot;margin: 0px 0px 0px 4px;&quot;&gt;+ ImpulseForce : const float&lt;/p&gt;" style="text;strokeColor=none;fillColor=none;align=left;verticalAlign=top;spacingLeft=4;spacingRight=4;overflow=hidden;rotatable=0;points=[[0,0.5],[1,0.5]];portConstraint=eastwest;whiteSpace=wrap;html=1;autosize=1;" vertex="1" parent="162FxMgAlP1VKG4DYquW-2">
          <mxGeometry y="48" width="180" height="70" as="geometry" />
        </mxCell>
        <mxCell id="162FxMgAlP1VKG4DYquW-4" value="" style="line;strokeWidth=1;fillColor=none;align=left;verticalAlign=middle;spacingTop=-1;spacingLeft=3;spacingRight=3;rotatable=0;labelPosition=right;points=[];portConstraint=eastwest;strokeColor=inherit;" vertex="1" parent="162FxMgAlP1VKG4DYquW-2">
          <mxGeometry y="118" width="180" height="8" as="geometry" />
        </mxCell>
        <mxCell id="162FxMgAlP1VKG4DYquW-5" value="&lt;p style=&quot;margin: 0px 0px 0px 4px;&quot;&gt;&lt;span style=&quot;background-color: initial;&quot;&gt;- OnMouseDown()&lt;/span&gt;&lt;/p&gt;&lt;p style=&quot;margin: 0px 0px 0px 4px;&quot;&gt;- MoveToFish()&lt;/p&gt;&lt;p style=&quot;margin: 0px 0px 0px 4px;&quot;&gt;- OnCollisionEnter2D()&amp;nbsp;&lt;/p&gt;&lt;p style=&quot;margin: 0px 0px 0px 4px;&quot;&gt;- RemoveFishFromSea()&lt;/p&gt;&lt;p style=&quot;margin: 0px 0px 0px 4px;&quot;&gt;- AddFishToNet()&lt;/p&gt;" style="text;strokeColor=none;fillColor=none;align=left;verticalAlign=top;spacingLeft=4;spacingRight=4;overflow=hidden;rotatable=0;points=[[0,0.5],[1,0.5]];portConstraint=eastwest;whiteSpace=wrap;html=1;autosize=1;" vertex="1" parent="162FxMgAlP1VKG4DYquW-2">
          <mxGeometry y="126" width="180" height="90" as="geometry" />
        </mxCell>
        <mxCell id="162FxMgAlP1VKG4DYquW-6" value="&lt;b&gt;FishSpawnScript :&lt;br&gt;MonoBehavior&lt;/b&gt;" style="swimlane;fontStyle=1;align=center;verticalAlign=top;childLayout=stackLayout;horizontal=1;startSize=48;horizontalStack=0;resizeParent=1;resizeParentMax=0;resizeLast=0;collapsible=1;marginBottom=0;whiteSpace=wrap;html=1;autosize=1;" vertex="1" parent="Y0SBbjK8kKm6BncAYIOs-1">
          <mxGeometry x="-1070" y="580" width="180" height="156" as="geometry">
            <mxRectangle x="-1070" y="580" width="150" height="48" as="alternateBounds" />
          </mxGeometry>
        </mxCell>
        <mxCell id="162FxMgAlP1VKG4DYquW-7" value="&lt;p style=&quot;margin: 0px 0px 0px 4px;&quot;&gt;&lt;span style=&quot;background-color: initial;&quot;&gt;+ FishPrefab : GameObject&lt;/span&gt;&lt;/p&gt;&lt;p style=&quot;margin: 0px 0px 0px 4px;&quot;&gt;+ SeaOfFish[] : List&lt;/p&gt;" style="text;strokeColor=none;fillColor=none;align=left;verticalAlign=top;spacingLeft=4;spacingRight=4;overflow=hidden;rotatable=0;points=[[0,0.5],[1,0.5]];portConstraint=eastwest;whiteSpace=wrap;html=1;autosize=1;" vertex="1" parent="162FxMgAlP1VKG4DYquW-6">
          <mxGeometry y="48" width="180" height="40" as="geometry" />
        </mxCell>
        <mxCell id="162FxMgAlP1VKG4DYquW-8" value="" style="line;strokeWidth=1;fillColor=none;align=left;verticalAlign=middle;spacingTop=-1;spacingLeft=3;spacingRight=3;rotatable=0;labelPosition=right;points=[];portConstraint=eastwest;strokeColor=inherit;" vertex="1" parent="162FxMgAlP1VKG4DYquW-6">
          <mxGeometry y="88" width="180" height="8" as="geometry" />
        </mxCell>
        <mxCell id="162FxMgAlP1VKG4DYquW-9" value="&lt;p style=&quot;margin: 0px 0px 0px 4px;&quot;&gt;&lt;span style=&quot;background-color: initial;&quot;&gt;-&amp;nbsp;&lt;strike&gt;OnMouseDown()&lt;/strike&gt;&lt;/span&gt;&lt;/p&gt;&lt;p style=&quot;margin: 0px 0px 0px 4px;&quot;&gt;-&amp;nbsp;&lt;strike&gt;CreateFishAtLocation()&lt;/strike&gt;&lt;/p&gt;&lt;p style=&quot;margin: 0px 0px 0px 4px;&quot;&gt;- AddFishToSea()&lt;/p&gt;" style="text;strokeColor=none;fillColor=none;align=left;verticalAlign=top;spacingLeft=4;spacingRight=4;overflow=hidden;rotatable=0;points=[[0,0.5],[1,0.5]];portConstraint=eastwest;whiteSpace=wrap;html=1;autosize=1;" vertex="1" parent="162FxMgAlP1VKG4DYquW-6">
          <mxGeometry y="96" width="180" height="60" as="geometry" />
        </mxCell>
        <mxCell id="162FxMgAlP1VKG4DYquW-10" value="&lt;b&gt;ScreenUtils :&lt;br&gt;MonoBehavior&lt;/b&gt;" style="swimlane;fontStyle=1;align=center;verticalAlign=top;childLayout=stackLayout;horizontal=1;startSize=48;horizontalStack=0;resizeParent=1;resizeParentMax=0;resizeLast=0;collapsible=1;marginBottom=0;whiteSpace=wrap;html=1;autosize=1;resizeWidth=0;fixedWidth=0;" vertex="1" parent="Y0SBbjK8kKm6BncAYIOs-1">
          <mxGeometry x="-430" y="710" width="210" height="266" as="geometry">
            <mxRectangle x="-430" y="710" width="120" height="48" as="alternateBounds" />
          </mxGeometry>
        </mxCell>
        <mxCell id="162FxMgAlP1VKG4DYquW-11" value="&lt;p style=&quot;margin: 0px 0px 0px 4px;&quot;&gt;+ screenWidth : static int&lt;/p&gt;&lt;p style=&quot;margin: 0px 0px 0px 4px;&quot;&gt;+ screenHeight : static int&lt;/p&gt;&lt;p style=&quot;margin: 0px 0px 0px 4px;&quot;&gt;+ screenLeft : static float&lt;/p&gt;&lt;p style=&quot;margin: 0px 0px 0px 4px;&quot;&gt;+ screenRight : static float&lt;/p&gt;&lt;p style=&quot;margin: 0px 0px 0px 4px;&quot;&gt;+ screenTop : static float&lt;/p&gt;&lt;p style=&quot;margin: 0px 0px 0px 4px;&quot;&gt;+ screenBot : static float&lt;/p&gt;" style="text;strokeColor=none;fillColor=none;align=left;verticalAlign=top;spacingLeft=4;spacingRight=4;overflow=hidden;rotatable=0;points=[[0,0.5],[1,0.5]];portConstraint=eastwest;whiteSpace=wrap;html=1;autosize=1;" vertex="1" parent="162FxMgAlP1VKG4DYquW-10">
          <mxGeometry y="48" width="210" height="100" as="geometry" />
        </mxCell>
        <mxCell id="162FxMgAlP1VKG4DYquW-12" value="" style="line;strokeWidth=1;fillColor=none;align=left;verticalAlign=middle;spacingTop=-1;spacingLeft=3;spacingRight=3;rotatable=0;labelPosition=right;points=[];portConstraint=eastwest;strokeColor=inherit;" vertex="1" parent="162FxMgAlP1VKG4DYquW-10">
          <mxGeometry y="148" width="210" height="8" as="geometry" />
        </mxCell>
        <mxCell id="162FxMgAlP1VKG4DYquW-13" value="&lt;p style=&quot;margin: 0px 0px 0px 4px;&quot;&gt;- ScreenLeft : static float&lt;/p&gt;&lt;p style=&quot;margin: 0px 0px 0px 4px;&quot;&gt;- ScreenRight : static float&lt;/p&gt;&lt;p style=&quot;margin: 0px 0px 0px 4px;&quot;&gt;- ScreenTop : static float&lt;/p&gt;&lt;p style=&quot;margin: 0px 0px 0px 4px;&quot;&gt;- ScreenBot : static float&lt;/p&gt;&lt;p style=&quot;margin: 0px 0px 0px 4px;&quot;&gt;- Initialize()&lt;/p&gt;&lt;p style=&quot;margin: 0px 0px 0px 4px;&quot;&gt;- CursorLocation() : static Vector3&lt;/p&gt;&lt;p style=&quot;margin: 0px 0px 0px 4px;&quot;&gt;- WithinBoundary() : static bool&lt;/p&gt;" style="text;strokeColor=none;fillColor=none;align=left;verticalAlign=top;spacingLeft=4;spacingRight=4;overflow=hidden;rotatable=0;points=[[0,0.5],[1,0.5]];portConstraint=eastwest;whiteSpace=wrap;html=1;autosize=1;" vertex="1" parent="162FxMgAlP1VKG4DYquW-10">
          <mxGeometry y="156" width="210" height="110" as="geometry" />
        </mxCell>
        <mxCell id="162FxMgAlP1VKG4DYquW-14" style="edgeStyle=elbowEdgeStyle;rounded=0;orthogonalLoop=1;jettySize=auto;elbow=vertical;html=1;entryX=0;entryY=0.5;entryDx=0;entryDy=0;strokeColor=default;align=center;verticalAlign=middle;fontFamily=Helvetica;fontSize=12;fontColor=default;fontStyle=1;labelBackgroundColor=default;startSize=8;endArrow=classic;endSize=8;" edge="1" parent="Y0SBbjK8kKm6BncAYIOs-1" source="162FxMgAlP1VKG4DYquW-17" target="162FxMgAlP1VKG4DYquW-21">
          <mxGeometry relative="1" as="geometry" />
        </mxCell>
        <mxCell id="162FxMgAlP1VKG4DYquW-15" style="edgeStyle=elbowEdgeStyle;rounded=0;orthogonalLoop=1;jettySize=auto;elbow=vertical;html=1;strokeColor=default;align=center;verticalAlign=middle;fontFamily=Helvetica;fontSize=12;fontColor=default;fontStyle=1;labelBackgroundColor=default;startSize=8;endArrow=classic;endSize=8;" edge="1" parent="Y0SBbjK8kKm6BncAYIOs-1" source="162FxMgAlP1VKG4DYquW-17" target="162FxMgAlP1VKG4DYquW-44">
          <mxGeometry relative="1" as="geometry" />
        </mxCell>
        <mxCell id="162FxMgAlP1VKG4DYquW-16" style="edgeStyle=elbowEdgeStyle;rounded=0;orthogonalLoop=1;jettySize=auto;elbow=vertical;html=1;strokeColor=default;align=center;verticalAlign=middle;fontFamily=Helvetica;fontSize=12;fontColor=default;fontStyle=1;labelBackgroundColor=default;startSize=8;endArrow=classic;endSize=8;" edge="1" parent="Y0SBbjK8kKm6BncAYIOs-1" source="162FxMgAlP1VKG4DYquW-17" target="162FxMgAlP1VKG4DYquW-25">
          <mxGeometry relative="1" as="geometry" />
        </mxCell>
        <mxCell id="162FxMgAlP1VKG4DYquW-17" value="&lt;b&gt;FishDestroyerScript :&lt;br&gt;MonoBehaviorf&lt;/b&gt;" style="swimlane;fontStyle=1;align=center;verticalAlign=top;childLayout=stackLayout;horizontal=1;startSize=48;horizontalStack=0;resizeParent=1;resizeParentMax=0;resizeLast=0;collapsible=1;marginBottom=0;whiteSpace=wrap;html=1;autosize=1;" vertex="1" parent="Y0SBbjK8kKm6BncAYIOs-1">
          <mxGeometry x="-1240" y="847" width="250" height="126" as="geometry">
            <mxRectangle x="-1240" y="847" width="160" height="48" as="alternateBounds" />
          </mxGeometry>
        </mxCell>
        <mxCell id="162FxMgAlP1VKG4DYquW-18" value="&lt;p style=&quot;margin: 0px 0px 0px 4px;&quot;&gt;&lt;span style=&quot;background-color: initial;&quot;&gt;+ scoreboard : ScoreBoardScript&lt;/span&gt;&lt;br&gt;&lt;/p&gt;&lt;p style=&quot;margin: 0px 0px 0px 4px;&quot;&gt;+ ReceivedFishDestruction : GameObject&lt;/p&gt;" style="text;strokeColor=none;fillColor=none;align=left;verticalAlign=top;spacingLeft=4;spacingRight=4;overflow=hidden;rotatable=0;points=[[0,0.5],[1,0.5]];portConstraint=none;whiteSpace=wrap;html=1;autosize=1;imageWidth=24;arcSize=12;absoluteArcSize=1;strokeOpacity=100;direction=east;part=0;imageAspect=1;" vertex="1" parent="162FxMgAlP1VKG4DYquW-17">
          <mxGeometry y="48" width="250" height="40" as="geometry" />
        </mxCell>
        <mxCell id="162FxMgAlP1VKG4DYquW-19" value="" style="line;strokeWidth=1;fillColor=none;align=left;verticalAlign=middle;spacingTop=-1;spacingLeft=3;spacingRight=3;rotatable=0;labelPosition=right;points=[];portConstraint=eastwest;strokeColor=inherit;" vertex="1" parent="162FxMgAlP1VKG4DYquW-17">
          <mxGeometry y="88" width="250" height="8" as="geometry" />
        </mxCell>
        <mxCell id="162FxMgAlP1VKG4DYquW-20" value="- DestroyFishFromSea() : virtual void" style="text;strokeColor=none;fillColor=none;align=left;verticalAlign=top;spacingLeft=4;spacingRight=4;overflow=hidden;rotatable=0;points=[[0,0.5],[1,0.5]];portConstraint=eastwest;whiteSpace=wrap;html=1;autosize=1;" vertex="1" parent="162FxMgAlP1VKG4DYquW-17">
          <mxGeometry y="96" width="250" height="30" as="geometry" />
        </mxCell>
        <mxCell id="162FxMgAlP1VKG4DYquW-21" value="&lt;b&gt;ScoreBoardScript :&lt;br&gt;MonoBehavior&lt;/b&gt;" style="swimlane;fontStyle=1;align=center;verticalAlign=top;childLayout=stackLayout;horizontal=1;startSize=48;horizontalStack=0;resizeParent=1;resizeParentMax=0;resizeLast=0;collapsible=1;marginBottom=0;whiteSpace=wrap;html=1;autosize=1;" vertex="1" parent="Y0SBbjK8kKm6BncAYIOs-1">
          <mxGeometry x="-750" y="832" width="170" height="156" as="geometry">
            <mxRectangle x="-750" y="832" width="150" height="48" as="alternateBounds" />
          </mxGeometry>
        </mxCell>
        <mxCell id="162FxMgAlP1VKG4DYquW-22" value="&lt;p style=&quot;margin: 0px 0px 0px 4px;&quot;&gt;&lt;span style=&quot;background-color: initial;&quot;&gt;+ totalPoints : static int&lt;/span&gt;&lt;br&gt;&lt;/p&gt;&lt;p style=&quot;margin: 0px 0px 0px 4px;&quot;&gt;+ setScoreValue : static int&lt;/p&gt;" style="text;strokeColor=none;fillColor=none;align=left;verticalAlign=top;spacingLeft=4;spacingRight=4;overflow=hidden;rotatable=0;points=[[0,0.5],[1,0.5]];portConstraint=eastwest;whiteSpace=wrap;html=1;autosize=1;" vertex="1" parent="162FxMgAlP1VKG4DYquW-21">
          <mxGeometry y="48" width="170" height="40" as="geometry" />
        </mxCell>
        <mxCell id="162FxMgAlP1VKG4DYquW-23" value="" style="line;strokeWidth=1;fillColor=none;align=left;verticalAlign=middle;spacingTop=-1;spacingLeft=3;spacingRight=3;rotatable=0;labelPosition=right;points=[];portConstraint=eastwest;strokeColor=inherit;" vertex="1" parent="162FxMgAlP1VKG4DYquW-21">
          <mxGeometry y="88" width="170" height="8" as="geometry" />
        </mxCell>
        <mxCell id="162FxMgAlP1VKG4DYquW-24" value="&lt;p style=&quot;margin: 0px 0px 0px 4px;&quot;&gt;&lt;span style=&quot;background-color: initial;&quot;&gt;- TotalPoints&lt;/span&gt;&lt;br&gt;&lt;/p&gt;&lt;p style=&quot;margin: 0px 0px 0px 4px;&quot;&gt;- SetScoreValue&lt;/p&gt;&lt;p style=&quot;margin: 0px 0px 0px 4px;&quot;&gt;- AddPoints()&amp;nbsp;&lt;/p&gt;" style="text;strokeColor=none;fillColor=none;align=left;verticalAlign=top;spacingLeft=4;spacingRight=4;overflow=hidden;rotatable=0;points=[[0,0.5],[1,0.5]];portConstraint=eastwest;whiteSpace=wrap;html=1;autosize=1;" vertex="1" parent="162FxMgAlP1VKG4DYquW-21">
          <mxGeometry y="96" width="170" height="60" as="geometry" />
        </mxCell>
        <mxCell id="162FxMgAlP1VKG4DYquW-25" value="&lt;b&gt;RegularFishScript :&lt;br&gt;FishDestroyerScript&lt;/b&gt;" style="swimlane;fontStyle=1;align=center;verticalAlign=top;childLayout=stackLayout;horizontal=1;startSize=48;horizontalStack=0;resizeParent=1;resizeParentMax=0;resizeLast=0;collapsible=1;marginBottom=0;whiteSpace=wrap;html=1;autosize=1;" vertex="1" parent="Y0SBbjK8kKm6BncAYIOs-1">
          <mxGeometry x="-1070" y="1030" width="230" height="116" as="geometry">
            <mxRectangle x="-1070" y="1030" width="160" height="48" as="alternateBounds" />
          </mxGeometry>
        </mxCell>
        <mxCell id="162FxMgAlP1VKG4DYquW-26" value="+" style="text;strokeColor=none;fillColor=none;align=left;verticalAlign=top;spacingLeft=4;spacingRight=4;overflow=hidden;rotatable=0;points=[[0,0.5],[1,0.5]];portConstraint=eastwest;whiteSpace=wrap;html=1;autosize=1;" vertex="1" parent="162FxMgAlP1VKG4DYquW-25">
          <mxGeometry y="48" width="230" height="30" as="geometry" />
        </mxCell>
        <mxCell id="162FxMgAlP1VKG4DYquW-27" value="" style="line;strokeWidth=1;fillColor=none;align=left;verticalAlign=middle;spacingTop=-1;spacingLeft=3;spacingRight=3;rotatable=0;labelPosition=right;points=[];portConstraint=eastwest;strokeColor=inherit;" vertex="1" parent="162FxMgAlP1VKG4DYquW-25">
          <mxGeometry y="78" width="230" height="8" as="geometry" />
        </mxCell>
        <mxCell id="162FxMgAlP1VKG4DYquW-28" value="- DestroyFishFromSea() : override void" style="text;strokeColor=none;fillColor=none;align=left;verticalAlign=top;spacingLeft=4;spacingRight=4;overflow=hidden;rotatable=0;points=[[0,0.5],[1,0.5]];portConstraint=eastwest;whiteSpace=wrap;html=1;autosize=1;" vertex="1" parent="162FxMgAlP1VKG4DYquW-25">
          <mxGeometry y="86" width="230" height="30" as="geometry" />
        </mxCell>
        <mxCell id="162FxMgAlP1VKG4DYquW-29" value="&lt;b&gt;BurningFishScript :&lt;br&gt;AnimatedFishScript&lt;/b&gt;" style="swimlane;fontStyle=1;align=center;verticalAlign=top;childLayout=stackLayout;horizontal=1;startSize=48;horizontalStack=0;resizeParent=1;resizeParentMax=0;resizeLast=0;collapsible=1;marginBottom=0;whiteSpace=wrap;html=1;autosize=1;" vertex="1" parent="Y0SBbjK8kKm6BncAYIOs-1">
          <mxGeometry x="-1260" y="1193" width="230" height="156" as="geometry">
            <mxRectangle x="-1260" y="1193" width="150" height="48" as="alternateBounds" />
          </mxGeometry>
        </mxCell>
        <mxCell id="162FxMgAlP1VKG4DYquW-30" value="&lt;p style=&quot;margin: 0px 0px 0px 4px;&quot;&gt;+ BurningPrefab : GameObject&lt;/p&gt;&lt;p style=&quot;margin: 0px 0px 0px 4px;&quot;&gt;+ burnTimer : TimerScript&lt;/p&gt;&lt;p style=&quot;margin: 0px 0px 0px 4px;&quot;&gt;+ burningLifetime : float&lt;/p&gt;&lt;div&gt;&lt;br&gt;&lt;/div&gt;" style="text;strokeColor=none;fillColor=none;align=left;verticalAlign=top;spacingLeft=4;spacingRight=4;overflow=hidden;rotatable=0;points=[[0,0.5],[1,0.5]];portConstraint=eastwest;whiteSpace=wrap;html=1;autosize=1;" vertex="1" parent="162FxMgAlP1VKG4DYquW-29">
          <mxGeometry y="48" width="230" height="70" as="geometry" />
        </mxCell>
        <mxCell id="162FxMgAlP1VKG4DYquW-31" value="" style="line;strokeWidth=1;fillColor=none;align=left;verticalAlign=middle;spacingTop=-1;spacingLeft=3;spacingRight=3;rotatable=0;labelPosition=right;points=[];portConstraint=eastwest;strokeColor=inherit;" vertex="1" parent="162FxMgAlP1VKG4DYquW-29">
          <mxGeometry y="118" width="230" height="8" as="geometry" />
        </mxCell>
        <mxCell id="162FxMgAlP1VKG4DYquW-32" value="- DestroyFishFromSea() : override void" style="text;strokeColor=none;fillColor=none;align=left;verticalAlign=top;spacingLeft=4;spacingRight=4;overflow=hidden;rotatable=0;points=[[0,0.5],[1,0.5]];portConstraint=eastwest;whiteSpace=wrap;html=1;autosize=1;" vertex="1" parent="162FxMgAlP1VKG4DYquW-29">
          <mxGeometry y="126" width="230" height="30" as="geometry" />
        </mxCell>
        <mxCell id="162FxMgAlP1VKG4DYquW-33" value="&lt;b&gt;TimerScript :&lt;br&gt;MonoBehavior&lt;/b&gt;" style="swimlane;fontStyle=1;align=center;verticalAlign=top;childLayout=stackLayout;horizontal=1;startSize=48;horizontalStack=0;resizeParent=1;resizeParentMax=0;resizeLast=0;collapsible=1;marginBottom=0;whiteSpace=wrap;html=1;autosize=1;" vertex="1" parent="Y0SBbjK8kKm6BncAYIOs-1">
          <mxGeometry x="-720" y="1180" width="160" height="296" as="geometry">
            <mxRectangle x="-720" y="1180" width="120" height="48" as="alternateBounds" />
          </mxGeometry>
        </mxCell>
        <mxCell id="162FxMgAlP1VKG4DYquW-34" value="&lt;p style=&quot;margin: 0px 0px 0px 4px;&quot;&gt;+ startPoint : float&lt;/p&gt;&lt;p style=&quot;margin: 0px 0px 0px 4px;&quot;&gt;+ endPoint : float&lt;/p&gt;&lt;p style=&quot;margin: 0px 0px 0px 4px;&quot;&gt;+ elapsed : float&lt;/p&gt;&lt;p style=&quot;margin: 0px 0px 0px 4px;&quot;&gt;+ running : bool&lt;/p&gt;" style="text;strokeColor=none;fillColor=none;align=left;verticalAlign=top;spacingLeft=4;spacingRight=4;overflow=hidden;rotatable=0;points=[[0,0.5],[1,0.5]];portConstraint=eastwest;whiteSpace=wrap;html=1;autosize=1;" vertex="1" parent="162FxMgAlP1VKG4DYquW-33">
          <mxGeometry y="48" width="160" height="70" as="geometry" />
        </mxCell>
        <mxCell id="162FxMgAlP1VKG4DYquW-35" value="" style="line;strokeWidth=1;fillColor=none;align=left;verticalAlign=middle;spacingTop=-1;spacingLeft=3;spacingRight=3;rotatable=0;labelPosition=right;points=[];portConstraint=eastwest;strokeColor=inherit;" vertex="1" parent="162FxMgAlP1VKG4DYquW-33">
          <mxGeometry y="118" width="160" height="8" as="geometry" />
        </mxCell>
        <mxCell id="162FxMgAlP1VKG4DYquW-36" value="&lt;p style=&quot;margin: 0px 0px 0px 4px;&quot;&gt;- StartPoint&lt;/p&gt;&lt;p style=&quot;margin: 0px 0px 0px 4px;&quot;&gt;- EndPoint&lt;/p&gt;&lt;p style=&quot;margin: 0px 0px 0px 4px;&quot;&gt;- Elapsed&lt;/p&gt;&lt;p style=&quot;margin: 0px 0px 0px 4px;&quot;&gt;- Running&lt;/p&gt;&lt;p style=&quot;margin: 0px 0px 0px 4px;&quot;&gt;- DeactivateTimer()&lt;/p&gt;&lt;p style=&quot;margin: 0px 0px 0px 4px;&quot;&gt;- ActivateTimer()&lt;/p&gt;&lt;p style=&quot;margin: 0px 0px 0px 4px;&quot;&gt;- KillTimer() // unusable&lt;/p&gt;&lt;p style=&quot;margin: 0px 0px 0px 4px;&quot;&gt;- CountUp()&lt;/p&gt;&lt;p style=&quot;margin: 0px 0px 0px 4px;&quot;&gt;- RestartTimer()&lt;/p&gt;&lt;p style=&quot;margin: 0px 0px 0px 4px;&quot;&gt;- UnderTime()&lt;/p&gt;&lt;p style=&quot;margin: 0px 0px 0px 4px;&quot;&gt;- OverTime()&lt;/p&gt;" style="text;strokeColor=none;fillColor=none;align=left;verticalAlign=top;spacingLeft=4;spacingRight=4;overflow=hidden;rotatable=0;points=[[0,0.5],[1,0.5]];portConstraint=eastwest;whiteSpace=wrap;html=1;autosize=1;" vertex="1" parent="162FxMgAlP1VKG4DYquW-33">
          <mxGeometry y="126" width="160" height="170" as="geometry" />
        </mxCell>
        <mxCell id="162FxMgAlP1VKG4DYquW-37" value="" style="edgeStyle=elbowEdgeStyle;rounded=0;orthogonalLoop=1;jettySize=auto;html=1;fontFamily=Helvetica;fontSize=12;fontColor=default;fontStyle=1;startSize=8;endSize=8;elbow=vertical;" edge="1" parent="Y0SBbjK8kKm6BncAYIOs-1" source="162FxMgAlP1VKG4DYquW-38" target="162FxMgAlP1VKG4DYquW-52">
          <mxGeometry relative="1" as="geometry" />
        </mxCell>
        <mxCell id="162FxMgAlP1VKG4DYquW-38" value="&lt;b&gt;GameInitializer :&amp;nbsp;&lt;br&gt;MonoBehavior&lt;/b&gt;" style="swimlane;fontStyle=1;align=center;verticalAlign=top;childLayout=stackLayout;horizontal=1;startSize=48;horizontalStack=0;resizeParent=1;resizeParentMax=0;resizeLast=0;collapsible=1;marginBottom=0;whiteSpace=wrap;html=1;autosize=1;" vertex="1" parent="Y0SBbjK8kKm6BncAYIOs-1">
          <mxGeometry x="-430" y="580" width="200" height="116" as="geometry">
            <mxRectangle x="-430" y="580" width="140" height="48" as="alternateBounds" />
          </mxGeometry>
        </mxCell>
        <mxCell id="162FxMgAlP1VKG4DYquW-39" value="+&amp;nbsp;" style="text;strokeColor=none;fillColor=none;align=left;verticalAlign=top;spacingLeft=4;spacingRight=4;overflow=hidden;rotatable=0;points=[[0,0.5],[1,0.5]];portConstraint=eastwest;whiteSpace=wrap;html=1;autosize=1;" vertex="1" parent="162FxMgAlP1VKG4DYquW-38">
          <mxGeometry y="48" width="200" height="30" as="geometry" />
        </mxCell>
        <mxCell id="162FxMgAlP1VKG4DYquW-40" value="" style="line;strokeWidth=1;fillColor=none;align=left;verticalAlign=middle;spacingTop=-1;spacingLeft=3;spacingRight=3;rotatable=0;labelPosition=right;points=[];portConstraint=eastwest;strokeColor=inherit;" vertex="1" parent="162FxMgAlP1VKG4DYquW-38">
          <mxGeometry y="78" width="200" height="8" as="geometry" />
        </mxCell>
        <mxCell id="162FxMgAlP1VKG4DYquW-41" value="- Start() {ScreenUtils.Initialize()}" style="text;strokeColor=none;fillColor=none;align=left;verticalAlign=top;spacingLeft=4;spacingRight=4;overflow=hidden;rotatable=0;points=[[0,0.5],[1,0.5]];portConstraint=eastwest;whiteSpace=wrap;html=1;autosize=1;" vertex="1" parent="162FxMgAlP1VKG4DYquW-38">
          <mxGeometry y="86" width="200" height="30" as="geometry" />
        </mxCell>
        <mxCell id="162FxMgAlP1VKG4DYquW-42" style="edgeStyle=elbowEdgeStyle;rounded=0;orthogonalLoop=1;jettySize=auto;elbow=vertical;html=1;entryX=0.5;entryY=0;entryDx=0;entryDy=0;strokeColor=default;align=center;verticalAlign=middle;fontFamily=Helvetica;fontSize=12;fontColor=default;fontStyle=1;labelBackgroundColor=default;startSize=8;endArrow=classic;endSize=8;" edge="1" parent="Y0SBbjK8kKm6BncAYIOs-1" source="162FxMgAlP1VKG4DYquW-44" target="162FxMgAlP1VKG4DYquW-48">
          <mxGeometry relative="1" as="geometry" />
        </mxCell>
        <mxCell id="162FxMgAlP1VKG4DYquW-43" style="edgeStyle=elbowEdgeStyle;rounded=0;orthogonalLoop=1;jettySize=auto;elbow=vertical;html=1;entryX=0.5;entryY=0;entryDx=0;entryDy=0;strokeColor=default;align=center;verticalAlign=middle;fontFamily=Helvetica;fontSize=12;fontColor=default;fontStyle=1;labelBackgroundColor=default;startSize=8;endArrow=classic;endSize=8;" edge="1" parent="Y0SBbjK8kKm6BncAYIOs-1" source="162FxMgAlP1VKG4DYquW-44" target="162FxMgAlP1VKG4DYquW-29">
          <mxGeometry relative="1" as="geometry" />
        </mxCell>
        <mxCell id="162FxMgAlP1VKG4DYquW-44" value="&lt;b&gt;AnimatedFishScript :&lt;br&gt;FishDestroyerScript&lt;/b&gt;" style="swimlane;fontStyle=1;align=center;verticalAlign=top;childLayout=stackLayout;horizontal=1;startSize=48;horizontalStack=0;resizeParent=1;resizeParentMax=0;resizeLast=0;collapsible=1;marginBottom=0;whiteSpace=wrap;html=1;autosize=1;" vertex="1" parent="Y0SBbjK8kKm6BncAYIOs-1">
          <mxGeometry x="-1410" y="1030" width="240" height="116" as="geometry">
            <mxRectangle x="-1410" y="1030" width="160" height="48" as="alternateBounds" />
          </mxGeometry>
        </mxCell>
        <mxCell id="162FxMgAlP1VKG4DYquW-45" value="+ ReceivedFishAnimation : GameObject" style="text;strokeColor=none;fillColor=none;align=left;verticalAlign=top;spacingLeft=4;spacingRight=4;overflow=hidden;rotatable=0;points=[[0,0.5],[1,0.5]];portConstraint=eastwest;whiteSpace=wrap;html=1;autosize=1;" vertex="1" parent="162FxMgAlP1VKG4DYquW-44">
          <mxGeometry y="48" width="240" height="30" as="geometry" />
        </mxCell>
        <mxCell id="162FxMgAlP1VKG4DYquW-46" value="" style="line;strokeWidth=1;fillColor=none;align=left;verticalAlign=middle;spacingTop=-1;spacingLeft=3;spacingRight=3;rotatable=0;labelPosition=right;points=[];portConstraint=eastwest;strokeColor=inherit;" vertex="1" parent="162FxMgAlP1VKG4DYquW-44">
          <mxGeometry y="78" width="240" height="8" as="geometry" />
        </mxCell>
        <mxCell id="162FxMgAlP1VKG4DYquW-47" value="-" style="text;strokeColor=none;fillColor=none;align=left;verticalAlign=top;spacingLeft=4;spacingRight=4;overflow=hidden;rotatable=0;points=[[0,0.5],[1,0.5]];portConstraint=eastwest;whiteSpace=wrap;html=1;autosize=1;" vertex="1" parent="162FxMgAlP1VKG4DYquW-44">
          <mxGeometry y="86" width="240" height="30" as="geometry" />
        </mxCell>
        <mxCell id="162FxMgAlP1VKG4DYquW-48" value="&lt;b&gt;ExplodingFishScript :&lt;br&gt;AnimatedFishScript&lt;/b&gt;" style="swimlane;fontStyle=1;align=center;verticalAlign=top;childLayout=stackLayout;horizontal=1;startSize=48;horizontalStack=0;resizeParent=1;resizeParentMax=0;resizeLast=0;collapsible=1;marginBottom=0;whiteSpace=wrap;html=1;autosize=1;" vertex="1" parent="Y0SBbjK8kKm6BncAYIOs-1">
          <mxGeometry x="-1580" y="1193" width="230" height="126" as="geometry">
            <mxRectangle x="-1580" y="1193" width="160" height="48" as="alternateBounds" />
          </mxGeometry>
        </mxCell>
        <mxCell id="162FxMgAlP1VKG4DYquW-49" value="+ ExplosionPrefab : GameObject&lt;div&gt;&lt;br&gt;&lt;/div&gt;" style="text;strokeColor=none;fillColor=none;align=left;verticalAlign=top;spacingLeft=4;spacingRight=4;overflow=hidden;rotatable=0;points=[[0,0.5],[1,0.5]];portConstraint=eastwest;whiteSpace=wrap;html=1;autosize=1;" vertex="1" parent="162FxMgAlP1VKG4DYquW-48">
          <mxGeometry y="48" width="230" height="40" as="geometry" />
        </mxCell>
        <mxCell id="162FxMgAlP1VKG4DYquW-50" value="" style="line;strokeWidth=1;fillColor=none;align=left;verticalAlign=middle;spacingTop=-1;spacingLeft=3;spacingRight=3;rotatable=0;labelPosition=right;points=[];portConstraint=eastwest;strokeColor=inherit;" vertex="1" parent="162FxMgAlP1VKG4DYquW-48">
          <mxGeometry y="88" width="230" height="8" as="geometry" />
        </mxCell>
        <mxCell id="162FxMgAlP1VKG4DYquW-51" value="- DestroyFishFromSea() : override void" style="text;strokeColor=none;fillColor=none;align=left;verticalAlign=top;spacingLeft=4;spacingRight=4;overflow=hidden;rotatable=0;points=[[0,0.5],[1,0.5]];portConstraint=eastwest;whiteSpace=wrap;html=1;autosize=1;" vertex="1" parent="162FxMgAlP1VKG4DYquW-48">
          <mxGeometry y="96" width="230" height="30" as="geometry" />
        </mxCell>
        <mxCell id="162FxMgAlP1VKG4DYquW-52" value="Main Camera" style="ellipse;strokeColor=default;align=center;verticalAlign=bottom;fontFamily=Helvetica;fontSize=12;fontColor=default;fillColor=none;html=1;labelBorderColor=none;labelBackgroundColor=none;noLabel=0;collapsible=0;backgroundOutline=0;movableLabel=1;aspect=fixed;enumerate=0;" vertex="1" parent="Y0SBbjK8kKm6BncAYIOs-1">
          <mxGeometry x="-108" y="625" width="28" height="28" as="geometry">
            <mxPoint y="20" as="offset" />
          </mxGeometry>
        </mxCell>
        <mxCell id="162FxMgAlP1VKG4DYquW-53" style="edgeStyle=elbowEdgeStyle;rounded=0;orthogonalLoop=1;jettySize=auto;elbow=vertical;html=1;entryX=0.01;entryY=0.647;entryDx=0;entryDy=0;entryPerimeter=0;strokeColor=default;align=center;verticalAlign=middle;fontFamily=Helvetica;fontSize=12;fontColor=default;fontStyle=1;labelBackgroundColor=default;startSize=8;endArrow=classic;endSize=8;" edge="1" parent="Y0SBbjK8kKm6BncAYIOs-1" source="162FxMgAlP1VKG4DYquW-29" target="162FxMgAlP1VKG4DYquW-34">
          <mxGeometry relative="1" as="geometry" />
        </mxCell>
        <mxCell id="162FxMgAlP1VKG4DYquW-54" value="&lt;div&gt;&lt;b&gt;RegularFishScript :&lt;br&gt;FishDestroyerScript&lt;/b&gt;&lt;br&gt;&lt;/div&gt;" style="swimlane;fontStyle=1;align=center;verticalAlign=top;childLayout=stackLayout;horizontal=1;startSize=48;horizontalStack=0;resizeParent=1;resizeParentMax=0;resizeLast=0;collapsible=1;marginBottom=0;whiteSpace=wrap;html=1;autosize=1;" vertex="1" collapsed="1" parent="Y0SBbjK8kKm6BncAYIOs-1">
          <mxGeometry x="-810" y="570" width="160" height="48" as="geometry">
            <mxRectangle x="-730" y="390" width="160" height="86" as="alternateBounds" />
          </mxGeometry>
        </mxCell>
        <mxCell id="162FxMgAlP1VKG4DYquW-55" value="+ field: type" style="text;strokeColor=none;fillColor=none;align=left;verticalAlign=top;spacingLeft=4;spacingRight=4;overflow=hidden;rotatable=0;points=[[0,0.5],[1,0.5]];portConstraint=eastwest;whiteSpace=wrap;html=1;autosize=1;" vertex="1" parent="162FxMgAlP1VKG4DYquW-54">
          <mxGeometry y="26" width="160" height="26" as="geometry" />
        </mxCell>
        <mxCell id="162FxMgAlP1VKG4DYquW-56" value="" style="line;strokeWidth=1;fillColor=none;align=left;verticalAlign=middle;spacingTop=-1;spacingLeft=3;spacingRight=3;rotatable=0;labelPosition=right;points=[];portConstraint=eastwest;strokeColor=inherit;" vertex="1" parent="162FxMgAlP1VKG4DYquW-54">
          <mxGeometry y="52" width="160" height="8" as="geometry" />
        </mxCell>
        <mxCell id="162FxMgAlP1VKG4DYquW-57" value="+ method(type): type" style="text;strokeColor=none;fillColor=none;align=left;verticalAlign=top;spacingLeft=4;spacingRight=4;overflow=hidden;rotatable=0;points=[[0,0.5],[1,0.5]];portConstraint=eastwest;whiteSpace=wrap;html=1;autosize=1;" vertex="1" parent="162FxMgAlP1VKG4DYquW-54">
          <mxGeometry y="60" width="160" height="26" as="geometry" />
        </mxCell>
        <mxCell id="162FxMgAlP1VKG4DYquW-58" value="&lt;p style=&quot;margin:0px;margin-top:4px;text-align:center;&quot;&gt;&lt;b&gt;Class&lt;/b&gt;&lt;/p&gt;&lt;hr size=&quot;1&quot; style=&quot;border-style:solid;&quot;/&gt;&lt;p style=&quot;margin:0px;margin-left:4px;&quot;&gt;+ field: Type&lt;/p&gt;&lt;hr size=&quot;1&quot; style=&quot;border-style:solid;&quot;/&gt;&lt;p style=&quot;margin:0px;margin-left:4px;&quot;&gt;+ method(): Type&lt;/p&gt;" style="verticalAlign=top;align=left;overflow=fill;html=1;whiteSpace=wrap;" vertex="1" parent="Y0SBbjK8kKm6BncAYIOs-1">
          <mxGeometry x="-1600" y="186" width="180" height="180" as="geometry" />
        </mxCell>
        <mxCell id="162FxMgAlP1VKG4DYquW-59" value="" style="shape=providedRequiredInterface;html=1;verticalLabelPosition=bottom;sketch=0;" vertex="1" parent="Y0SBbjK8kKm6BncAYIOs-1">
          <mxGeometry x="-1600" y="106" width="40" height="40" as="geometry" />
        </mxCell>
        <mxCell id="162FxMgAlP1VKG4DYquW-60" value="Main Camera" style="shape=providedRequiredInterface;html=1;verticalLabelPosition=bottom;sketch=0;verticalAlign=top;" vertex="1" parent="Y0SBbjK8kKm6BncAYIOs-1">
          <mxGeometry x="-1600" y="26" width="40" height="40" as="geometry" />
        </mxCell>
        <mxCell id="162FxMgAlP1VKG4DYquW-61" value="&lt;p style=&quot;margin:0px;margin-top:4px;text-align:center;&quot;&gt;&lt;b&gt;Class&lt;/b&gt;&lt;/p&gt;&lt;hr size=&quot;1&quot; style=&quot;border-style:solid;&quot;&gt;&lt;p style=&quot;margin:0px;margin-left:4px;&quot;&gt;+&amp;nbsp;&lt;/p&gt;&lt;hr size=&quot;1&quot; style=&quot;border-style:solid;&quot;&gt;&lt;p style=&quot;margin:0px;margin-left:4px;&quot;&gt;-&amp;nbsp;&lt;/p&gt;" style="verticalAlign=top;align=left;overflow=fill;html=1;whiteSpace=wrap;" vertex="1" parent="Y0SBbjK8kKm6BncAYIOs-1">
          <mxGeometry x="-1500" y="186" width="180" height="180" as="geometry" />
        </mxCell>
        <mxCell id="162FxMgAlP1VKG4DYquW-62" value="&lt;p style=&quot;margin:0px;margin-top:4px;text-align:center;&quot;&gt;&lt;b&gt;Class&lt;/b&gt;&lt;/p&gt;&lt;hr size=&quot;1&quot; style=&quot;border-style:solid;&quot;&gt;&lt;p style=&quot;margin:0px;margin-left:4px;&quot;&gt;+&amp;nbsp;&lt;/p&gt;&lt;hr size=&quot;1&quot; style=&quot;border-style:solid;&quot;&gt;&lt;p style=&quot;margin:0px;margin-left:4px;&quot;&gt;-&amp;nbsp;&lt;/p&gt;" style="verticalAlign=top;align=left;overflow=fill;html=1;whiteSpace=wrap;collapsible=1;" vertex="1" parent="Y0SBbjK8kKm6BncAYIOs-1">
          <mxGeometry x="-1400" y="186" width="180" height="180" as="geometry">
            <mxRectangle x="720" y="360" width="70" height="90" as="alternateBounds" />
          </mxGeometry>
        </mxCell>
        <mxCell id="162FxMgAlP1VKG4DYquW-63" value="" style="ellipse;html=1;shape=endState;align=left;verticalAlign=top;fontFamily=Helvetica;fontSize=12;strokeColor=default;fillColor=none;" vertex="1" parent="Y0SBbjK8kKm6BncAYIOs-1">
          <mxGeometry x="-1525" y="26" width="45" height="45" as="geometry" />
        </mxCell>
        <mxCell id="162FxMgAlP1VKG4DYquW-64" value="" style="ellipse;whiteSpace=wrap;html=1;aspect=fixed;strokeColor=default;align=left;verticalAlign=top;fontFamily=Helvetica;fontSize=12;fontColor=default;fillColor=default;" vertex="1" parent="Y0SBbjK8kKm6BncAYIOs-1">
          <mxGeometry x="-1440" y="26" width="40" height="40" as="geometry" />
        </mxCell>
        <mxCell id="162FxMgAlP1VKG4DYquW-65" value="Main Camera" style="ellipse;strokeColor=default;align=center;verticalAlign=bottom;fontFamily=Helvetica;fontSize=12;fontColor=default;fillColor=none;html=1;labelBorderColor=none;labelBackgroundColor=none;noLabel=0;collapsible=0;backgroundOutline=0;movableLabel=1;aspect=fixed;enumerate=0;" vertex="1" parent="Y0SBbjK8kKm6BncAYIOs-1">
          <mxGeometry x="-1360" y="26" width="40" height="40" as="geometry">
            <mxPoint y="20" as="offset" />
          </mxGeometry>
        </mxCell>
        <mxCell id="162FxMgAlP1VKG4DYquW-66" value="Main Camera" style="ellipse;strokeColor=default;align=center;verticalAlign=bottom;fontFamily=Helvetica;fontSize=12;fontColor=default;fillColor=none;html=1;labelBorderColor=none;labelBackgroundColor=none;noLabel=0;collapsible=0;backgroundOutline=0;movableLabel=1;aspect=fixed;enumerate=0;" vertex="1" parent="Y0SBbjK8kKm6BncAYIOs-1">
          <mxGeometry x="-1280" y="26" width="28" height="28" as="geometry">
            <mxPoint y="20" as="offset" />
          </mxGeometry>
        </mxCell>
        <mxCell id="162FxMgAlP1VKG4DYquW-67" value="Classname" style="swimlane;fontStyle=1;align=center;verticalAlign=top;childLayout=stackLayout;horizontal=1;startSize=26;horizontalStack=0;resizeParent=1;resizeParentMax=0;resizeLast=0;collapsible=1;marginBottom=0;whiteSpace=wrap;html=1;autosize=1;" vertex="1" parent="Y0SBbjK8kKm6BncAYIOs-1">
          <mxGeometry x="-1184" y="256" width="160" height="86" as="geometry">
            <mxRectangle x="456" y="270" width="100" height="30" as="alternateBounds" />
          </mxGeometry>
        </mxCell>
        <mxCell id="162FxMgAlP1VKG4DYquW-68" value="+ field: type" style="text;strokeColor=none;fillColor=none;align=left;verticalAlign=top;spacingLeft=4;spacingRight=4;overflow=hidden;rotatable=0;points=[[0,0.5],[1,0.5]];portConstraint=eastwest;whiteSpace=wrap;html=1;autosize=1;" vertex="1" parent="162FxMgAlP1VKG4DYquW-67">
          <mxGeometry y="26" width="160" height="26" as="geometry" />
        </mxCell>
        <mxCell id="162FxMgAlP1VKG4DYquW-69" value="" style="line;strokeWidth=1;fillColor=none;align=left;verticalAlign=middle;spacingTop=-1;spacingLeft=3;spacingRight=3;rotatable=0;labelPosition=right;points=[];portConstraint=eastwest;strokeColor=inherit;" vertex="1" parent="162FxMgAlP1VKG4DYquW-67">
          <mxGeometry y="52" width="160" height="8" as="geometry" />
        </mxCell>
        <mxCell id="162FxMgAlP1VKG4DYquW-70" value="+ method(type): type" style="text;strokeColor=none;fillColor=none;align=left;verticalAlign=top;spacingLeft=4;spacingRight=4;overflow=hidden;rotatable=0;points=[[0,0.5],[1,0.5]];portConstraint=eastwest;whiteSpace=wrap;html=1;autosize=1;" vertex="1" parent="162FxMgAlP1VKG4DYquW-67">
          <mxGeometry y="60" width="160" height="26" as="geometry" />
        </mxCell>
      </root>
    </mxGraphModel>
  </diagram>
  <diagram name="Copy of Page-1" id="zsO9EzeKHS6V_DHpjXSN">
    <mxGraphModel dx="2565" dy="1591" grid="1" gridSize="10" guides="1" tooltips="1" connect="1" arrows="1" fold="1" page="1" pageScale="1" pageWidth="827" pageHeight="1169" math="0" shadow="0">
      <root>
        <mxCell id="f70vmhPMP1x61ZMPHDHI-0" />
        <mxCell id="f70vmhPMP1x61ZMPHDHI-1" parent="f70vmhPMP1x61ZMPHDHI-0" />
        <mxCell id="f70vmhPMP1x61ZMPHDHI-2" value="Person" style="swimlane;fontStyle=2;align=center;verticalAlign=top;childLayout=stackLayout;horizontal=1;startSize=26;horizontalStack=0;resizeParent=1;resizeLast=0;collapsible=1;marginBottom=0;rounded=0;shadow=0;strokeWidth=1;" parent="f70vmhPMP1x61ZMPHDHI-1" vertex="1">
          <mxGeometry x="220" y="120" width="160" height="138" as="geometry">
            <mxRectangle x="220" y="120" width="160" height="26" as="alternateBounds" />
          </mxGeometry>
        </mxCell>
        <mxCell id="f70vmhPMP1x61ZMPHDHI-3" value="Name" style="text;align=left;verticalAlign=top;spacingLeft=4;spacingRight=4;overflow=hidden;rotatable=0;points=[[0,0.5],[1,0.5]];portConstraint=eastwest;" parent="f70vmhPMP1x61ZMPHDHI-2" vertex="1">
          <mxGeometry y="26" width="160" height="26" as="geometry" />
        </mxCell>
        <mxCell id="f70vmhPMP1x61ZMPHDHI-4" value="Phone Number" style="text;align=left;verticalAlign=top;spacingLeft=4;spacingRight=4;overflow=hidden;rotatable=0;points=[[0,0.5],[1,0.5]];portConstraint=eastwest;rounded=0;shadow=0;html=0;" parent="f70vmhPMP1x61ZMPHDHI-2" vertex="1">
          <mxGeometry y="52" width="160" height="26" as="geometry" />
        </mxCell>
        <mxCell id="f70vmhPMP1x61ZMPHDHI-5" value="Email Address" style="text;align=left;verticalAlign=top;spacingLeft=4;spacingRight=4;overflow=hidden;rotatable=0;points=[[0,0.5],[1,0.5]];portConstraint=eastwest;rounded=0;shadow=0;html=0;" parent="f70vmhPMP1x61ZMPHDHI-2" vertex="1">
          <mxGeometry y="78" width="160" height="26" as="geometry" />
        </mxCell>
        <mxCell id="f70vmhPMP1x61ZMPHDHI-6" value="" style="line;html=1;strokeWidth=1;align=left;verticalAlign=middle;spacingTop=-1;spacingLeft=3;spacingRight=3;rotatable=0;labelPosition=right;points=[];portConstraint=eastwest;" parent="f70vmhPMP1x61ZMPHDHI-2" vertex="1">
          <mxGeometry y="104" width="160" height="8" as="geometry" />
        </mxCell>
        <mxCell id="f70vmhPMP1x61ZMPHDHI-7" value="Purchase Parking Pass" style="text;align=left;verticalAlign=top;spacingLeft=4;spacingRight=4;overflow=hidden;rotatable=0;points=[[0,0.5],[1,0.5]];portConstraint=eastwest;" parent="f70vmhPMP1x61ZMPHDHI-2" vertex="1">
          <mxGeometry y="112" width="160" height="26" as="geometry" />
        </mxCell>
        <mxCell id="f70vmhPMP1x61ZMPHDHI-8" value="Student" style="swimlane;fontStyle=0;align=center;verticalAlign=top;childLayout=stackLayout;horizontal=1;startSize=26;horizontalStack=0;resizeParent=1;resizeLast=0;collapsible=1;marginBottom=0;rounded=0;shadow=0;strokeWidth=1;" parent="f70vmhPMP1x61ZMPHDHI-1" vertex="1">
          <mxGeometry x="120" y="360" width="160" height="138" as="geometry">
            <mxRectangle x="130" y="380" width="160" height="26" as="alternateBounds" />
          </mxGeometry>
        </mxCell>
        <mxCell id="f70vmhPMP1x61ZMPHDHI-9" value="Student Number" style="text;align=left;verticalAlign=top;spacingLeft=4;spacingRight=4;overflow=hidden;rotatable=0;points=[[0,0.5],[1,0.5]];portConstraint=eastwest;" parent="f70vmhPMP1x61ZMPHDHI-8" vertex="1">
          <mxGeometry y="26" width="160" height="26" as="geometry" />
        </mxCell>
        <mxCell id="f70vmhPMP1x61ZMPHDHI-10" value="Average Mark" style="text;align=left;verticalAlign=top;spacingLeft=4;spacingRight=4;overflow=hidden;rotatable=0;points=[[0,0.5],[1,0.5]];portConstraint=eastwest;rounded=0;shadow=0;html=0;" parent="f70vmhPMP1x61ZMPHDHI-8" vertex="1">
          <mxGeometry y="52" width="160" height="26" as="geometry" />
        </mxCell>
        <mxCell id="f70vmhPMP1x61ZMPHDHI-11" value="" style="line;html=1;strokeWidth=1;align=left;verticalAlign=middle;spacingTop=-1;spacingLeft=3;spacingRight=3;rotatable=0;labelPosition=right;points=[];portConstraint=eastwest;" parent="f70vmhPMP1x61ZMPHDHI-8" vertex="1">
          <mxGeometry y="78" width="160" height="8" as="geometry" />
        </mxCell>
        <mxCell id="f70vmhPMP1x61ZMPHDHI-12" value="Is Eligible To Enroll" style="text;align=left;verticalAlign=top;spacingLeft=4;spacingRight=4;overflow=hidden;rotatable=0;points=[[0,0.5],[1,0.5]];portConstraint=eastwest;fontStyle=4" parent="f70vmhPMP1x61ZMPHDHI-8" vertex="1">
          <mxGeometry y="86" width="160" height="26" as="geometry" />
        </mxCell>
        <mxCell id="f70vmhPMP1x61ZMPHDHI-13" value="Get Seminars Taken" style="text;align=left;verticalAlign=top;spacingLeft=4;spacingRight=4;overflow=hidden;rotatable=0;points=[[0,0.5],[1,0.5]];portConstraint=eastwest;" parent="f70vmhPMP1x61ZMPHDHI-8" vertex="1">
          <mxGeometry y="112" width="160" height="26" as="geometry" />
        </mxCell>
        <mxCell id="f70vmhPMP1x61ZMPHDHI-14" value="" style="endArrow=block;endSize=10;endFill=0;shadow=0;strokeWidth=1;rounded=0;curved=0;edgeStyle=elbowEdgeStyle;elbow=vertical;" parent="f70vmhPMP1x61ZMPHDHI-1" source="f70vmhPMP1x61ZMPHDHI-8" target="f70vmhPMP1x61ZMPHDHI-2" edge="1">
          <mxGeometry width="160" relative="1" as="geometry">
            <mxPoint x="200" y="203" as="sourcePoint" />
            <mxPoint x="200" y="203" as="targetPoint" />
          </mxGeometry>
        </mxCell>
        <mxCell id="f70vmhPMP1x61ZMPHDHI-15" value="Professor" style="swimlane;fontStyle=0;align=center;verticalAlign=top;childLayout=stackLayout;horizontal=1;startSize=26;horizontalStack=0;resizeParent=1;resizeLast=0;collapsible=1;marginBottom=0;rounded=0;shadow=0;strokeWidth=1;" parent="f70vmhPMP1x61ZMPHDHI-1" vertex="1">
          <mxGeometry x="330" y="360" width="160" height="70" as="geometry">
            <mxRectangle x="340" y="380" width="170" height="26" as="alternateBounds" />
          </mxGeometry>
        </mxCell>
        <mxCell id="f70vmhPMP1x61ZMPHDHI-16" value="Salary" style="text;align=left;verticalAlign=top;spacingLeft=4;spacingRight=4;overflow=hidden;rotatable=0;points=[[0,0.5],[1,0.5]];portConstraint=eastwest;" parent="f70vmhPMP1x61ZMPHDHI-15" vertex="1">
          <mxGeometry y="26" width="160" height="26" as="geometry" />
        </mxCell>
        <mxCell id="f70vmhPMP1x61ZMPHDHI-17" value="" style="line;html=1;strokeWidth=1;align=left;verticalAlign=middle;spacingTop=-1;spacingLeft=3;spacingRight=3;rotatable=0;labelPosition=right;points=[];portConstraint=eastwest;" parent="f70vmhPMP1x61ZMPHDHI-15" vertex="1">
          <mxGeometry y="52" width="160" height="8" as="geometry" />
        </mxCell>
        <mxCell id="f70vmhPMP1x61ZMPHDHI-18" value="" style="endArrow=block;endSize=10;endFill=0;shadow=0;strokeWidth=1;rounded=0;curved=0;edgeStyle=elbowEdgeStyle;elbow=vertical;" parent="f70vmhPMP1x61ZMPHDHI-1" source="f70vmhPMP1x61ZMPHDHI-15" target="f70vmhPMP1x61ZMPHDHI-2" edge="1">
          <mxGeometry width="160" relative="1" as="geometry">
            <mxPoint x="210" y="373" as="sourcePoint" />
            <mxPoint x="310" y="271" as="targetPoint" />
          </mxGeometry>
        </mxCell>
        <mxCell id="f70vmhPMP1x61ZMPHDHI-19" value="Address" style="swimlane;fontStyle=0;align=center;verticalAlign=top;childLayout=stackLayout;horizontal=1;startSize=26;horizontalStack=0;resizeParent=1;resizeLast=0;collapsible=1;marginBottom=0;rounded=0;shadow=0;strokeWidth=1;" parent="f70vmhPMP1x61ZMPHDHI-1" vertex="1">
          <mxGeometry x="508" y="120" width="160" height="216" as="geometry">
            <mxRectangle x="550" y="140" width="160" height="26" as="alternateBounds" />
          </mxGeometry>
        </mxCell>
        <mxCell id="f70vmhPMP1x61ZMPHDHI-20" value="Street" style="text;align=left;verticalAlign=top;spacingLeft=4;spacingRight=4;overflow=hidden;rotatable=0;points=[[0,0.5],[1,0.5]];portConstraint=eastwest;" parent="f70vmhPMP1x61ZMPHDHI-19" vertex="1">
          <mxGeometry y="26" width="160" height="26" as="geometry" />
        </mxCell>
        <mxCell id="f70vmhPMP1x61ZMPHDHI-21" value="City" style="text;align=left;verticalAlign=top;spacingLeft=4;spacingRight=4;overflow=hidden;rotatable=0;points=[[0,0.5],[1,0.5]];portConstraint=eastwest;rounded=0;shadow=0;html=0;" parent="f70vmhPMP1x61ZMPHDHI-19" vertex="1">
          <mxGeometry y="52" width="160" height="26" as="geometry" />
        </mxCell>
        <mxCell id="f70vmhPMP1x61ZMPHDHI-22" value="State" style="text;align=left;verticalAlign=top;spacingLeft=4;spacingRight=4;overflow=hidden;rotatable=0;points=[[0,0.5],[1,0.5]];portConstraint=eastwest;rounded=0;shadow=0;html=0;" parent="f70vmhPMP1x61ZMPHDHI-19" vertex="1">
          <mxGeometry y="78" width="160" height="26" as="geometry" />
        </mxCell>
        <mxCell id="f70vmhPMP1x61ZMPHDHI-23" value="Postal Code" style="text;align=left;verticalAlign=top;spacingLeft=4;spacingRight=4;overflow=hidden;rotatable=0;points=[[0,0.5],[1,0.5]];portConstraint=eastwest;rounded=0;shadow=0;html=0;" parent="f70vmhPMP1x61ZMPHDHI-19" vertex="1">
          <mxGeometry y="104" width="160" height="26" as="geometry" />
        </mxCell>
        <mxCell id="f70vmhPMP1x61ZMPHDHI-24" value="Country" style="text;align=left;verticalAlign=top;spacingLeft=4;spacingRight=4;overflow=hidden;rotatable=0;points=[[0,0.5],[1,0.5]];portConstraint=eastwest;rounded=0;shadow=0;html=0;" parent="f70vmhPMP1x61ZMPHDHI-19" vertex="1">
          <mxGeometry y="130" width="160" height="26" as="geometry" />
        </mxCell>
        <mxCell id="f70vmhPMP1x61ZMPHDHI-25" value="" style="line;html=1;strokeWidth=1;align=left;verticalAlign=middle;spacingTop=-1;spacingLeft=3;spacingRight=3;rotatable=0;labelPosition=right;points=[];portConstraint=eastwest;" parent="f70vmhPMP1x61ZMPHDHI-19" vertex="1">
          <mxGeometry y="156" width="160" height="8" as="geometry" />
        </mxCell>
        <mxCell id="f70vmhPMP1x61ZMPHDHI-26" value="Validate" style="text;align=left;verticalAlign=top;spacingLeft=4;spacingRight=4;overflow=hidden;rotatable=0;points=[[0,0.5],[1,0.5]];portConstraint=eastwest;" parent="f70vmhPMP1x61ZMPHDHI-19" vertex="1">
          <mxGeometry y="164" width="160" height="26" as="geometry" />
        </mxCell>
        <mxCell id="f70vmhPMP1x61ZMPHDHI-27" value="Output As Label" style="text;align=left;verticalAlign=top;spacingLeft=4;spacingRight=4;overflow=hidden;rotatable=0;points=[[0,0.5],[1,0.5]];portConstraint=eastwest;" parent="f70vmhPMP1x61ZMPHDHI-19" vertex="1">
          <mxGeometry y="190" width="160" height="26" as="geometry" />
        </mxCell>
        <mxCell id="f70vmhPMP1x61ZMPHDHI-28" value="" style="endArrow=open;shadow=0;strokeWidth=1;rounded=0;curved=0;endFill=1;edgeStyle=elbowEdgeStyle;elbow=vertical;" parent="f70vmhPMP1x61ZMPHDHI-1" source="f70vmhPMP1x61ZMPHDHI-2" target="f70vmhPMP1x61ZMPHDHI-19" edge="1">
          <mxGeometry x="0.5" y="41" relative="1" as="geometry">
            <mxPoint x="380" y="192" as="sourcePoint" />
            <mxPoint x="540" y="192" as="targetPoint" />
            <mxPoint x="-40" y="32" as="offset" />
          </mxGeometry>
        </mxCell>
        <mxCell id="f70vmhPMP1x61ZMPHDHI-29" value="0..1" style="resizable=0;align=left;verticalAlign=bottom;labelBackgroundColor=none;fontSize=12;" parent="f70vmhPMP1x61ZMPHDHI-28" connectable="0" vertex="1">
          <mxGeometry x="-1" relative="1" as="geometry">
            <mxPoint y="4" as="offset" />
          </mxGeometry>
        </mxCell>
        <mxCell id="f70vmhPMP1x61ZMPHDHI-30" value="1" style="resizable=0;align=right;verticalAlign=bottom;labelBackgroundColor=none;fontSize=12;" parent="f70vmhPMP1x61ZMPHDHI-28" connectable="0" vertex="1">
          <mxGeometry x="1" relative="1" as="geometry">
            <mxPoint x="-7" y="4" as="offset" />
          </mxGeometry>
        </mxCell>
        <mxCell id="f70vmhPMP1x61ZMPHDHI-31" value="lives at" style="text;html=1;resizable=0;points=[];;align=center;verticalAlign=middle;labelBackgroundColor=none;rounded=0;shadow=0;strokeWidth=1;fontSize=12;" parent="f70vmhPMP1x61ZMPHDHI-28" vertex="1" connectable="0">
          <mxGeometry x="0.5" y="49" relative="1" as="geometry">
            <mxPoint x="-38" y="40" as="offset" />
          </mxGeometry>
        </mxCell>
        <mxCell id="f70vmhPMP1x61ZMPHDHI-32" value="" style="edgeStyle=elbowEdgeStyle;rounded=0;orthogonalLoop=1;jettySize=auto;elbow=vertical;html=1;strokeColor=default;align=center;verticalAlign=middle;fontFamily=Helvetica;fontSize=12;fontColor=default;labelBackgroundColor=default;startSize=8;endArrow=classic;endSize=8;" parent="f70vmhPMP1x61ZMPHDHI-1" source="f70vmhPMP1x61ZMPHDHI-34" target="f70vmhPMP1x61ZMPHDHI-35" edge="1">
          <mxGeometry relative="1" as="geometry" />
        </mxCell>
        <mxCell id="f70vmhPMP1x61ZMPHDHI-33" value="" style="edgeStyle=elbowEdgeStyle;rounded=0;orthogonalLoop=1;jettySize=auto;elbow=vertical;html=1;strokeColor=default;align=center;verticalAlign=middle;fontFamily=Helvetica;fontSize=12;fontColor=default;labelBackgroundColor=default;startSize=8;endArrow=classic;endSize=8;" parent="f70vmhPMP1x61ZMPHDHI-1" source="f70vmhPMP1x61ZMPHDHI-34" target="f70vmhPMP1x61ZMPHDHI-39" edge="1">
          <mxGeometry relative="1" as="geometry" />
        </mxCell>
        <mxCell id="f70vmhPMP1x61ZMPHDHI-34" value="&lt;p style=&quot;margin:0px;margin-top:4px;text-align:center;&quot;&gt;&lt;b&gt;FishermanShipScript :&amp;nbsp;&lt;br&gt;&lt;/b&gt;&lt;b style=&quot;background-color: initial;&quot;&gt;MonoBehavior&lt;/b&gt;&lt;/p&gt;&lt;hr size=&quot;1&quot; style=&quot;border-style:solid;&quot;&gt;&lt;p style=&quot;margin:0px;margin-left:4px;&quot;&gt;&lt;span style=&quot;background-color: initial;&quot;&gt;+ FishPrefab : GameObject&lt;/span&gt;&lt;/p&gt;&lt;p style=&quot;margin:0px;margin-left:4px;&quot;&gt;&lt;span style=&quot;background-color: initial;&quot;&gt;+ ShipPrefab : GameObject&lt;/span&gt;&lt;/p&gt;&lt;p style=&quot;margin:0px;margin-left:4px;&quot;&gt;+ NetOfFish[] : List&lt;/p&gt;&lt;p style=&quot;margin:0px;margin-left:4px;&quot;&gt;+ ImpulseForce : const float&lt;/p&gt;&lt;hr size=&quot;1&quot; style=&quot;border-style:solid;&quot;&gt;&lt;p style=&quot;margin:0px;margin-left:4px;&quot;&gt;&lt;span style=&quot;background-color: initial;&quot;&gt;- OnMouseDown()&lt;/span&gt;&lt;/p&gt;&lt;p style=&quot;margin:0px;margin-left:4px;&quot;&gt;- MoveToFish()&lt;/p&gt;&lt;p style=&quot;margin:0px;margin-left:4px;&quot;&gt;- OnCollisionEnter2D()&amp;nbsp;&lt;/p&gt;&lt;p style=&quot;margin:0px;margin-left:4px;&quot;&gt;- RemoveFishFromSea()&lt;/p&gt;&lt;p style=&quot;margin:0px;margin-left:4px;&quot;&gt;- AddFishToNet()&lt;/p&gt;" style="verticalAlign=top;align=left;overflow=fill;html=1;whiteSpace=wrap;strokeColor=default;" parent="f70vmhPMP1x61ZMPHDHI-1" vertex="1">
          <mxGeometry x="160" y="560" width="180" height="200" as="geometry" />
        </mxCell>
        <mxCell id="f70vmhPMP1x61ZMPHDHI-35" value="&lt;p style=&quot;margin:0px;margin-top:4px;text-align:center;&quot;&gt;&lt;b&gt;FishSpawnScript :&lt;br&gt;MonoBehavior&lt;/b&gt;&lt;/p&gt;&lt;hr size=&quot;1&quot; style=&quot;border-style:solid;&quot;&gt;&lt;p style=&quot;margin:0px;margin-left:4px;&quot;&gt;&lt;span style=&quot;background-color: initial;&quot;&gt;+ FishPrefab : GameObject&lt;/span&gt;&lt;/p&gt;&lt;p style=&quot;margin:0px;margin-left:4px;&quot;&gt;+ SeaOfFish[] : List&lt;/p&gt;&lt;hr size=&quot;1&quot; style=&quot;border-style:solid;&quot;&gt;&lt;p style=&quot;margin:0px;margin-left:4px;&quot;&gt;&lt;span style=&quot;background-color: initial;&quot;&gt;- OnMouseDown()&lt;/span&gt;&lt;/p&gt;&lt;p style=&quot;margin:0px;margin-left:4px;&quot;&gt;- CreateFishAtLocation()&lt;/p&gt;&lt;p style=&quot;margin:0px;margin-left:4px;&quot;&gt;- AddFishToSea()&lt;/p&gt;" style="verticalAlign=top;align=left;overflow=fill;html=1;whiteSpace=wrap;imageAspect=1;allowArrows=1;" parent="f70vmhPMP1x61ZMPHDHI-1" vertex="1">
          <mxGeometry x="414" y="560" width="180" height="180" as="geometry" />
        </mxCell>
        <mxCell id="f70vmhPMP1x61ZMPHDHI-36" value="" style="edgeStyle=elbowEdgeStyle;rounded=0;orthogonalLoop=1;jettySize=auto;elbow=vertical;html=1;strokeColor=default;align=center;verticalAlign=middle;fontFamily=Helvetica;fontSize=12;fontColor=default;labelBackgroundColor=default;startSize=8;endArrow=classic;endSize=8;" parent="f70vmhPMP1x61ZMPHDHI-1" source="f70vmhPMP1x61ZMPHDHI-39" target="f70vmhPMP1x61ZMPHDHI-42" edge="1">
          <mxGeometry relative="1" as="geometry" />
        </mxCell>
        <mxCell id="f70vmhPMP1x61ZMPHDHI-37" value="" style="edgeStyle=elbowEdgeStyle;rounded=0;orthogonalLoop=1;jettySize=auto;elbow=vertical;html=1;strokeColor=default;align=center;verticalAlign=middle;fontFamily=Helvetica;fontSize=12;fontColor=default;labelBackgroundColor=default;startSize=8;endArrow=classic;endSize=8;" parent="f70vmhPMP1x61ZMPHDHI-1" source="f70vmhPMP1x61ZMPHDHI-39" target="f70vmhPMP1x61ZMPHDHI-46" edge="1">
          <mxGeometry relative="1" as="geometry" />
        </mxCell>
        <mxCell id="f70vmhPMP1x61ZMPHDHI-38" style="edgeStyle=elbowEdgeStyle;rounded=0;orthogonalLoop=1;jettySize=auto;elbow=vertical;html=1;strokeColor=default;align=center;verticalAlign=middle;fontFamily=Helvetica;fontSize=12;fontColor=default;labelBackgroundColor=default;startSize=8;endArrow=classic;endSize=8;" parent="f70vmhPMP1x61ZMPHDHI-1" source="f70vmhPMP1x61ZMPHDHI-39" target="f70vmhPMP1x61ZMPHDHI-45" edge="1">
          <mxGeometry relative="1" as="geometry" />
        </mxCell>
        <mxCell id="f70vmhPMP1x61ZMPHDHI-39" value="&lt;p style=&quot;margin:0px;margin-top:4px;text-align:center;&quot;&gt;&lt;b&gt;FishDestroyerScript : &lt;br&gt;MonoBehavior&lt;/b&gt;&lt;/p&gt;&lt;hr size=&quot;1&quot; style=&quot;border-style:solid;&quot;&gt;&lt;p style=&quot;margin:0px;margin-left:4px;&quot;&gt;&lt;span style=&quot;background-color: initial;&quot;&gt;+ scoreboard : ScoreBoardScript&lt;/span&gt;&lt;br&gt;&lt;/p&gt;&lt;p style=&quot;margin:0px;margin-left:4px;&quot;&gt;+ ReceivedFishDestruction : GameObject&lt;/p&gt;&lt;hr size=&quot;1&quot; style=&quot;border-style:solid;&quot;&gt;&lt;p style=&quot;margin:0px;margin-left:4px;&quot;&gt;&lt;span style=&quot;background-color: initial;&quot;&gt;- DestroyFishFromSea() : virtual void&lt;/span&gt;&lt;br&gt;&lt;/p&gt;" style="verticalAlign=top;align=left;overflow=fill;html=1;whiteSpace=wrap;" parent="f70vmhPMP1x61ZMPHDHI-1" vertex="1">
          <mxGeometry x="260" y="800" width="230" height="140" as="geometry" />
        </mxCell>
        <mxCell id="f70vmhPMP1x61ZMPHDHI-40" style="edgeStyle=none;curved=1;rounded=0;orthogonalLoop=1;jettySize=auto;html=1;exitX=0.25;exitY=0;exitDx=0;exitDy=0;fontSize=12;startSize=8;endSize=8;" parent="f70vmhPMP1x61ZMPHDHI-1" source="f70vmhPMP1x61ZMPHDHI-35" target="f70vmhPMP1x61ZMPHDHI-35" edge="1">
          <mxGeometry relative="1" as="geometry" />
        </mxCell>
        <mxCell id="f70vmhPMP1x61ZMPHDHI-41" value="&lt;p style=&quot;margin:0px;margin-top:4px;text-align:center;&quot;&gt;&lt;b&gt;Class&lt;/b&gt;&lt;/p&gt;&lt;hr size=&quot;1&quot; style=&quot;border-style:solid;&quot;/&gt;&lt;p style=&quot;margin:0px;margin-left:4px;&quot;&gt;+ field: Type&lt;/p&gt;&lt;hr size=&quot;1&quot; style=&quot;border-style:solid;&quot;/&gt;&lt;p style=&quot;margin:0px;margin-left:4px;&quot;&gt;+ method(): Type&lt;/p&gt;" style="verticalAlign=top;align=left;overflow=fill;html=1;whiteSpace=wrap;" parent="f70vmhPMP1x61ZMPHDHI-1" vertex="1">
          <mxGeometry x="520" y="360" width="180" height="180" as="geometry" />
        </mxCell>
        <mxCell id="f70vmhPMP1x61ZMPHDHI-42" value="&lt;p style=&quot;margin:0px;margin-top:4px;text-align:center;&quot;&gt;&lt;b&gt;ScoreBoardScript : &lt;br&gt;MonoBehavior&lt;/b&gt;&lt;/p&gt;&lt;hr size=&quot;1&quot; style=&quot;border-style:solid;&quot;&gt;&lt;p style=&quot;margin:0px;margin-left:4px;&quot;&gt;&lt;span style=&quot;background-color: initial;&quot;&gt;+ totalPoints : static int&lt;/span&gt;&lt;br&gt;&lt;/p&gt;&lt;p style=&quot;margin:0px;margin-left:4px;&quot;&gt;+ setScoreValue : static int&lt;/p&gt;&lt;hr size=&quot;1&quot; style=&quot;border-style:solid;&quot;&gt;&lt;p style=&quot;margin:0px;margin-left:4px;&quot;&gt;&lt;span style=&quot;background-color: initial;&quot;&gt;- TotalPoints&lt;/span&gt;&lt;br&gt;&lt;/p&gt;&lt;p style=&quot;margin:0px;margin-left:4px;&quot;&gt;- SetScoreValue&lt;/p&gt;&lt;p style=&quot;margin:0px;margin-left:4px;&quot;&gt;- AddPoints()&amp;nbsp;&lt;/p&gt;" style="verticalAlign=top;align=left;overflow=fill;html=1;whiteSpace=wrap;" parent="f70vmhPMP1x61ZMPHDHI-1" vertex="1">
          <mxGeometry x="680" y="780" width="180" height="180" as="geometry" />
        </mxCell>
        <mxCell id="f70vmhPMP1x61ZMPHDHI-43" value="" style="edgeStyle=elbowEdgeStyle;rounded=0;orthogonalLoop=1;jettySize=auto;elbow=vertical;html=1;strokeColor=default;align=center;verticalAlign=middle;fontFamily=Helvetica;fontSize=12;fontColor=default;labelBackgroundColor=default;startSize=8;endArrow=classic;endSize=8;" parent="f70vmhPMP1x61ZMPHDHI-1" source="f70vmhPMP1x61ZMPHDHI-45" target="f70vmhPMP1x61ZMPHDHI-49" edge="1">
          <mxGeometry relative="1" as="geometry" />
        </mxCell>
        <mxCell id="f70vmhPMP1x61ZMPHDHI-44" style="edgeStyle=elbowEdgeStyle;rounded=0;orthogonalLoop=1;jettySize=auto;elbow=vertical;html=1;strokeColor=default;align=center;verticalAlign=middle;fontFamily=Helvetica;fontSize=12;fontColor=default;labelBackgroundColor=default;startSize=8;endArrow=classic;endSize=8;" parent="f70vmhPMP1x61ZMPHDHI-1" source="f70vmhPMP1x61ZMPHDHI-45" target="f70vmhPMP1x61ZMPHDHI-47" edge="1">
          <mxGeometry relative="1" as="geometry" />
        </mxCell>
        <mxCell id="f70vmhPMP1x61ZMPHDHI-45" value="&lt;p style=&quot;margin:0px;margin-top:4px;text-align:center;&quot;&gt;&lt;b&gt;AnimatedFishScript : &lt;br&gt;FishDestroyerScript&lt;/b&gt;&lt;/p&gt;&lt;hr size=&quot;1&quot; style=&quot;border-style:solid;&quot;&gt;&lt;p style=&quot;margin:0px;margin-left:4px;&quot;&gt;&lt;span style=&quot;background-color: initial;&quot;&gt;+ ReceivedFishAnimation : GameObject&lt;/span&gt;&lt;br&gt;&lt;/p&gt;&lt;hr size=&quot;1&quot; style=&quot;border-style:solid;&quot;&gt;&lt;p style=&quot;margin:0px;margin-left:4px;&quot;&gt;&lt;br&gt;&lt;/p&gt;" style="verticalAlign=top;align=left;overflow=fill;html=1;whiteSpace=wrap;" parent="f70vmhPMP1x61ZMPHDHI-1" vertex="1">
          <mxGeometry x="130" y="989" width="230" height="120" as="geometry" />
        </mxCell>
        <mxCell id="f70vmhPMP1x61ZMPHDHI-46" value="&lt;p style=&quot;margin:0px;margin-top:4px;text-align:center;&quot;&gt;&lt;b&gt;RegularFishScript : &lt;br&gt;FishDestroyerScript&lt;/b&gt;&lt;/p&gt;&lt;hr size=&quot;1&quot; style=&quot;border-style:solid;&quot;&gt;&lt;p style=&quot;margin:0px;margin-left:4px;&quot;&gt;+&amp;nbsp;&lt;/p&gt;&lt;hr size=&quot;1&quot; style=&quot;border-style:solid;&quot;&gt;&lt;p style=&quot;margin:0px;margin-left:4px;&quot;&gt;- DestroyFishFromSea() : override void&lt;/p&gt;" style="verticalAlign=top;align=left;overflow=fill;html=1;whiteSpace=wrap;" parent="f70vmhPMP1x61ZMPHDHI-1" vertex="1">
          <mxGeometry x="389" y="989" width="230" height="121" as="geometry" />
        </mxCell>
        <mxCell id="f70vmhPMP1x61ZMPHDHI-47" value="&lt;p style=&quot;margin:0px;margin-top:4px;text-align:center;&quot;&gt;&lt;b&gt;ExplodingFishScript : &lt;br&gt;AnimatedFishScript&lt;/b&gt;&lt;/p&gt;&lt;hr size=&quot;1&quot; style=&quot;border-style:solid;&quot;&gt;&lt;p style=&quot;margin:0px;margin-left:4px;&quot;&gt;+ ExplosionPrefab : GameObject&lt;/p&gt;&lt;hr size=&quot;1&quot; style=&quot;border-style:solid;&quot;&gt;&lt;p style=&quot;margin:0px;margin-left:4px;&quot;&gt;- DestroyFishFromSea() : override void&lt;/p&gt;" style="verticalAlign=top;align=left;overflow=fill;html=1;whiteSpace=wrap;" parent="f70vmhPMP1x61ZMPHDHI-1" vertex="1">
          <mxGeometry x="10" y="1140" width="220" height="180" as="geometry" />
        </mxCell>
        <mxCell id="f70vmhPMP1x61ZMPHDHI-48" value="" style="edgeStyle=elbowEdgeStyle;rounded=0;orthogonalLoop=1;jettySize=auto;elbow=vertical;html=1;strokeColor=default;align=center;verticalAlign=middle;fontFamily=Helvetica;fontSize=12;fontColor=default;labelBackgroundColor=default;startSize=8;endArrow=classic;endSize=8;" parent="f70vmhPMP1x61ZMPHDHI-1" source="f70vmhPMP1x61ZMPHDHI-49" target="f70vmhPMP1x61ZMPHDHI-50" edge="1">
          <mxGeometry relative="1" as="geometry" />
        </mxCell>
        <mxCell id="f70vmhPMP1x61ZMPHDHI-49" value="&lt;p style=&quot;margin:0px;margin-top:4px;text-align:center;&quot;&gt;&lt;b&gt;BurningFishScript : &lt;br&gt;AnimatedFishScript&lt;/b&gt;&lt;/p&gt;&lt;hr size=&quot;1&quot; style=&quot;border-style:solid;&quot;&gt;&lt;p style=&quot;margin:0px;margin-left:4px;&quot;&gt;+ BurningPrefab : GameObject&lt;/p&gt;&lt;p style=&quot;margin:0px;margin-left:4px;&quot;&gt;+ burnTimer : TimerScript&lt;/p&gt;&lt;p style=&quot;margin:0px;margin-left:4px;&quot;&gt;+ burningLifetime : float&lt;/p&gt;&lt;hr size=&quot;1&quot; style=&quot;border-style:solid;&quot;&gt;&lt;p style=&quot;margin:0px;margin-left:4px;&quot;&gt;- DestroyFishFromSea() : override void&lt;/p&gt;" style="verticalAlign=top;align=left;overflow=fill;html=1;whiteSpace=wrap;" parent="f70vmhPMP1x61ZMPHDHI-1" vertex="1">
          <mxGeometry x="250" y="1140" width="216" height="180" as="geometry" />
        </mxCell>
        <mxCell id="f70vmhPMP1x61ZMPHDHI-50" value="&lt;p style=&quot;margin:0px;margin-top:4px;text-align:center;&quot;&gt;&lt;b&gt;TimerScript : &lt;br&gt;MonoBehavior&lt;/b&gt;&lt;/p&gt;&lt;hr size=&quot;1&quot; style=&quot;border-style:solid;&quot;&gt;&lt;p style=&quot;margin:0px;margin-left:4px;&quot;&gt;+ startPoint : float&lt;/p&gt;&lt;p style=&quot;margin:0px;margin-left:4px;&quot;&gt;+ endPoint : float&lt;/p&gt;&lt;p style=&quot;margin:0px;margin-left:4px;&quot;&gt;+ elapsed : float&lt;/p&gt;&lt;p style=&quot;margin:0px;margin-left:4px;&quot;&gt;+ running : bool&lt;/p&gt;&lt;hr size=&quot;1&quot; style=&quot;border-style:solid;&quot;&gt;&lt;p style=&quot;margin:0px;margin-left:4px;&quot;&gt;- StartPoint&lt;/p&gt;&lt;p style=&quot;margin:0px;margin-left:4px;&quot;&gt;- EndPoint&lt;/p&gt;&lt;p style=&quot;margin:0px;margin-left:4px;&quot;&gt;- Elapsed&lt;/p&gt;&lt;p style=&quot;margin:0px;margin-left:4px;&quot;&gt;- Running&lt;/p&gt;&lt;p style=&quot;margin:0px;margin-left:4px;&quot;&gt;- DeactivateTimer()&lt;/p&gt;&lt;p style=&quot;margin:0px;margin-left:4px;&quot;&gt;- ActivateTimer()&lt;/p&gt;&lt;p style=&quot;margin:0px;margin-left:4px;&quot;&gt;- KillTimer() // unusable&lt;/p&gt;&lt;p style=&quot;margin:0px;margin-left:4px;&quot;&gt;- CountUp()&lt;/p&gt;&lt;p style=&quot;margin:0px;margin-left:4px;&quot;&gt;- RestartTimer()&lt;/p&gt;&lt;p style=&quot;margin:0px;margin-left:4px;&quot;&gt;- UnderTime()&lt;/p&gt;&lt;p style=&quot;margin:0px;margin-left:4px;&quot;&gt;- OverTime()&lt;/p&gt;" style="verticalAlign=top;align=left;overflow=fill;html=1;whiteSpace=wrap;" parent="f70vmhPMP1x61ZMPHDHI-1" vertex="1">
          <mxGeometry x="680" y="1130" width="180" height="280" as="geometry" />
        </mxCell>
        <mxCell id="f70vmhPMP1x61ZMPHDHI-51" value="&lt;p style=&quot;margin:0px;margin-top:4px;text-align:center;&quot;&gt;&lt;b&gt;Class&lt;/b&gt;&lt;/p&gt;&lt;hr size=&quot;1&quot; style=&quot;border-style:solid;&quot;&gt;&lt;p style=&quot;margin:0px;margin-left:4px;&quot;&gt;+&amp;nbsp;&lt;/p&gt;&lt;hr size=&quot;1&quot; style=&quot;border-style:solid;&quot;&gt;&lt;p style=&quot;margin:0px;margin-left:4px;&quot;&gt;-&amp;nbsp;&lt;/p&gt;" style="verticalAlign=top;align=left;overflow=fill;html=1;whiteSpace=wrap;" parent="f70vmhPMP1x61ZMPHDHI-1" vertex="1">
          <mxGeometry x="620" y="360" width="180" height="180" as="geometry" />
        </mxCell>
        <mxCell id="f70vmhPMP1x61ZMPHDHI-52" value="" style="edgeStyle=none;curved=1;rounded=0;orthogonalLoop=1;jettySize=auto;html=1;fontSize=12;startSize=8;endSize=8;" parent="f70vmhPMP1x61ZMPHDHI-1" source="f70vmhPMP1x61ZMPHDHI-53" target="f70vmhPMP1x61ZMPHDHI-57" edge="1">
          <mxGeometry relative="1" as="geometry" />
        </mxCell>
        <mxCell id="f70vmhPMP1x61ZMPHDHI-53" value="&lt;p style=&quot;margin:0px;margin-top:4px;text-align:center;&quot;&gt;&lt;b&gt;GameInitializer :&amp;nbsp;&lt;br&gt;MonoBehavior&lt;/b&gt;&lt;/p&gt;&lt;hr size=&quot;1&quot; style=&quot;border-style:solid;&quot;&gt;&lt;p style=&quot;margin:0px;margin-left:4px;&quot;&gt;+&amp;nbsp;&lt;/p&gt;&lt;hr size=&quot;1&quot; style=&quot;border-style:solid;&quot;&gt;&lt;p style=&quot;margin:0px;margin-left:4px;&quot;&gt;-&amp;nbsp;&lt;/p&gt;" style="verticalAlign=top;align=left;overflow=fill;html=1;whiteSpace=wrap;" parent="f70vmhPMP1x61ZMPHDHI-1" vertex="1">
          <mxGeometry x="700" y="570" width="160" height="80" as="geometry" />
        </mxCell>
        <mxCell id="f70vmhPMP1x61ZMPHDHI-54" value="&lt;p style=&quot;margin:0px;margin-top:4px;text-align:center;&quot;&gt;&lt;b&gt;ScreenUtils : &lt;br&gt;MonoBehavior&lt;/b&gt;&lt;/p&gt;&lt;hr size=&quot;1&quot; style=&quot;border-style:solid;&quot;&gt;&lt;p style=&quot;margin:0px;margin-left:4px;&quot;&gt;+&amp;nbsp;&lt;/p&gt;&lt;hr size=&quot;1&quot; style=&quot;border-style:solid;&quot;&gt;&lt;p style=&quot;margin:0px;margin-left:4px;&quot;&gt;-&amp;nbsp;&lt;/p&gt;" style="verticalAlign=top;align=left;overflow=fill;html=1;whiteSpace=wrap;" parent="f70vmhPMP1x61ZMPHDHI-1" vertex="1">
          <mxGeometry x="700" y="660" width="160" height="80" as="geometry" />
        </mxCell>
        <mxCell id="f70vmhPMP1x61ZMPHDHI-55" value="" style="ellipse;whiteSpace=wrap;html=1;align=center;aspect=fixed;fillColor=none;strokeColor=none;resizable=0;perimeter=centerPerimeter;rotatable=0;allowArrows=0;points=[];outlineConnect=1;" parent="f70vmhPMP1x61ZMPHDHI-1" vertex="1">
          <mxGeometry x="550" y="660" width="10" height="10" as="geometry" />
        </mxCell>
        <mxCell id="f70vmhPMP1x61ZMPHDHI-56" value="" style="shape=providedRequiredInterface;html=1;verticalLabelPosition=bottom;sketch=0;" parent="f70vmhPMP1x61ZMPHDHI-1" vertex="1">
          <mxGeometry x="827" y="380" width="40" height="40" as="geometry" />
        </mxCell>
        <mxCell id="f70vmhPMP1x61ZMPHDHI-57" value="Main Camera" style="shape=providedRequiredInterface;html=1;verticalLabelPosition=bottom;sketch=0;verticalAlign=top;" parent="f70vmhPMP1x61ZMPHDHI-1" vertex="1">
          <mxGeometry x="960" y="590" width="40" height="40" as="geometry" />
        </mxCell>
      </root>
    </mxGraphModel>
  </diagram>
</mxfile>
